<?xml version="1.0" encoding="UTF-8"?>
<!DOCTYPE svg PUBLIC "-//W3C//DTD SVG 1.1//EN" "http://www.w3.org/Graphics/SVG/1.1/DTD/svg11.dtd">
<!-- Creator: CorelDRAW X7 -->
<svg xmlns="http://www.w3.org/2000/svg" xml:space="preserve" width="8.26772in" height="8.26666in" version="1.1" style="shape-rendering:geometricPrecision; text-rendering:geometricPrecision; image-rendering:optimizeQuality; fill-rule:evenodd; clip-rule:evenodd"
viewBox="0 0 8268 8267"
 xmlns:xlink="http://www.w3.org/1999/xlink"
 enable-background="new 0 0 275 275">
 <defs>
  <style type="text/css">
   <![CDATA[
    .fil0 {fill:#004A74}
    .fil1 {fill:white}
   ]]>
  </style>
 </defs>
 <g id="Layer_x0020_1">
  <metadata id="CorelCorpID_0Corel-Layer"/>
  <g id="_1836033807888">
   <g>
    <g>
     <path class="fil0" d="M6886 4281c0,0 0,1 0,2 1,2 1,4 1,7 0,10 -3,21 -8,33 -4,11 -13,21 -27,29 0,0 -2,1 -4,2 -3,2 -8,4 -15,5 -7,2 -13,3 -21,3 -18,0 -37,-5 -56,-15l-19 -12c-2,-1 -3,-1 -5,-1 -3,0 -5,1 -6,2 -2,1 -3,3 -3,5l-1 5 -6 0 0 -73 9 0 5 28c2,10 7,18 16,25 0,0 4,2 11,6 17,9 32,14 46,14 19,0 33,-10 42,-28 0,-1 1,-2 1,-4 1,-1 2,-4 2,-7 1,-3 1,-7 1,-10 0,-11 -3,-21 -9,-31 -6,-11 -17,-20 -32,-29 -6,-3 -15,-9 -27,-17 -13,-7 -21,-12 -24,-14 -12,-9 -21,-18 -29,-28 -8,-10 -12,-22 -13,-35 0,-19 6,-35 17,-49 11,-14 30,-21 57,-21 1,0 4,1 9,1 5,1 12,2 20,4 8,2 17,5 26,9 1,0 3,1 5,1 3,0 6,-1 8,-3 3,-2 4,-4 5,-7l1 -5 5 0 0 62 -5 0 -3 -12c-1,-5 -3,-9 -6,-13 -3,-4 -7,-7 -11,-9 -5,-3 -12,-5 -20,-7 -8,-2 -16,-3 -24,-3 -14,0 -24,3 -33,10 -8,7 -12,19 -12,36 0,12 3,22 9,28 6,7 12,12 18,16 6,3 10,5 12,6 4,3 10,6 19,11 9,6 16,10 21,13 33,20 50,43 53,70l0 0zm-286 -43l-34 -87 -34 87 68 0zm101 110l0 5 -85 0 0 -5 9 -1c3,-1 5,-2 7,-5 2,-2 4,-5 4,-8 0,-2 -1,-3 -2,-5l-28 -74 -80 0 -29 76c0,1 -1,2 -1,3 0,3 1,6 3,8 2,2 4,4 7,4l9 2 0 5 -74 0 0 -5 6 -1c6,-1 12,-3 17,-7 5,-4 9,-9 11,-15l95 -248 2 0 95 247c2,6 6,11 10,15 5,4 11,7 17,8l7 1zm-262 -215l-3 -17c0,-3 -1,-5 -4,-7 -2,-2 -5,-3 -8,-4l-52 0c-2,0 -3,1 -5,2 -1,2 -2,4 -2,6l0 220c0,3 1,6 3,8 2,2 4,4 7,4l17 3 0 5 -27 0 -32 0 -28 0 0 -5 17 -3c3,0 6,-2 8,-4 2,-2 3,-5 3,-9l0 -219c0,-2 -1,-4 -2,-6 -2,-1 -3,-2 -6,-2l-51 0c-3,1 -6,2 -8,4 -3,2 -4,4 -4,7l-4 17 -5 0 0 -28 0 -17c0,-2 1,-4 3,-5 1,-2 3,-2 5,-2l72 0 32 0 59 0 13 0c2,0 4,0 6,2 1,1 2,3 2,5l0 45 -6 0zm-230 -44c-3,0 -6,2 -8,4 -2,3 -3,5 -3,8l0 232c0,3 1,6 3,8 3,2 5,4 8,4l17 3 0 5 -28 0 -32 0 -27 0 0 -5 16 -3c3,0 6,-1 8,-4 2,-2 3,-5 3,-8l0 -231c0,-4 -1,-6 -3,-9 -2,-2 -5,-4 -8,-4l-16 -3 0 -5 27 0 32 0 28 0 0 5 -17 3zm-99 192c0,0 1,1 1,2 0,2 0,4 0,7 0,10 -2,21 -7,33 -5,11 -14,21 -27,29 0,0 -2,1 -5,2 -3,2 -8,4 -14,5 -7,2 -14,3 -21,3 -18,0 -37,-5 -56,-15l-20 -12c-1,-1 -3,-1 -5,-1 -2,0 -4,1 -6,2 -1,1 -2,3 -3,5l-1 5 -5 0 0 -73 8 0 6 28c1,10 7,18 16,25 0,0 3,2 11,6 16,9 31,14 45,14 19,0 34,-10 43,-28 0,-1 0,-2 1,-4 1,-1 1,-4 2,-7 1,-3 1,-7 1,-10 0,-11 -3,-21 -9,-31 -6,-11 -17,-20 -32,-29 -6,-3 -15,-9 -28,-17 -12,-7 -20,-12 -23,-14 -12,-9 -22,-18 -30,-28 -7,-10 -12,-22 -12,-35 0,-19 5,-35 17,-49 11,-14 30,-21 56,-21 1,0 5,1 10,1 5,1 11,2 20,4 8,2 16,5 25,9 2,0 4,1 6,1 3,0 6,-1 8,-3 2,-2 4,-4 4,-7l1 -5 5 0 0 62 -5 0 -2 -12c-1,-5 -3,-9 -6,-13 -3,-4 -7,-7 -11,-9 -6,-3 -12,-5 -20,-7 -9,-2 -17,-3 -25,-3 -13,0 -24,3 -32,10 -8,7 -13,19 -13,36 0,12 3,22 10,28 6,7 12,12 18,16 6,3 10,5 11,6 4,3 11,6 19,11 9,6 16,10 22,13 32,20 50,43 52,70zm-331 -55c12,0 22,-2 32,-8 10,-6 17,-13 23,-23 5,-9 8,-19 8,-31 0,-11 -3,-22 -8,-31 -6,-10 -14,-18 -24,-23 -9,-6 -20,-9 -31,-9l-16 0c-1,0 -3,1 -4,2 -2,1 -3,3 -3,5l0 118 23 0 0 0zm155 122l0 5 -28 0 -20 0c-6,0 -12,-1 -18,-3 -7,-2 -12,-5 -15,-9l-83 -103 -7 0c-2,0 -3,1 -5,2 -1,2 -2,3 -2,5l0 88c0,3 2,6 4,8 2,3 4,4 7,4l17 3 0 5 -87 0 0 -5 17 -3c3,0 5,-1 7,-4 3,-2 4,-5 4,-8l0 -232c0,-3 -1,-6 -4,-8 -2,-2 -4,-4 -7,-4l-17 -3 0 -5 28 0 68 0c15,0 28,3 40,10 12,7 22,17 29,29 7,12 11,25 11,40 0,18 -6,35 -17,49 -12,14 -27,23 -44,28l75 93c3,3 7,6 10,8 4,2 7,4 10,5 2,1 4,1 5,1l22 4zm-256 -6c0,4 -1,6 -3,8 -2,2 -5,3 -8,3l-112 0 -32 0 -28 0 0 -5 17 -3c3,0 6,-1 8,-4 2,-2 3,-5 3,-8l0 -231c0,-4 -1,-6 -3,-9 -2,-2 -5,-4 -8,-4l-17 -3 0 -5 28 0 32 0 99 0c3,0 5,1 7,3 2,2 3,4 3,6l0 14 0 27 -5 0 -3 -16c-1,-3 -2,-6 -5,-8 -2,-2 -5,-3 -8,-3l-82 0c-2,0 -3,1 -5,2 -1,1 -1,3 -1,5l0 77c0,2 0,3 2,5 1,1 3,1 4,1l56 0c3,0 6,-1 8,-3 3,-2 4,-4 4,-7l3 -17 5 0 0 27 0 13 0 5 0 27 -5 0 -3 -17c0,-3 -2,-5 -4,-7 -2,-2 -5,-3 -8,-3l-56 0c-1,0 -3,0 -4,1 -2,2 -2,3 -2,5l0 100c0,3 1,6 3,8 3,3 5,4 9,4l90 0c3,0 6,-1 8,-3 3,-2 4,-5 5,-8l3 -16 5 0 0 39 0 0zm-187 -261l0 5 -21 4c-4,1 -7,4 -8,8l-100 259 -16 0 -99 -259c-1,-2 -2,-4 -4,-5 -2,-2 -4,-3 -6,-3l-20 -4 0 -5 85 0 0 5 -9 1c-2,1 -5,2 -7,5 -2,2 -3,5 -3,8 0,2 0,3 1,5l73 192 75 -194c0,0 0,-2 0,-3 0,-3 -1,-6 -3,-8 -1,-2 -4,-4 -7,-5l-9 -1 0 -5 78 0zm-297 8c-3,0 -6,2 -8,4 -2,3 -3,5 -3,8l0 232c0,3 1,6 4,8 2,2 4,4 7,4l17 3 0 5 -28 0 -32 0 -27 0 0 -5 16 -3c4,0 6,-1 8,-4 2,-2 3,-5 3,-8l0 -231c0,-4 -1,-6 -3,-9 -2,-2 -4,-4 -8,-4l-16 -3 0 -5 27 0 32 0 28 0 0 5 -17 3zm-98 -3l-17 3c-3,0 -5,2 -7,4 -2,3 -3,5 -3,8l0 196 0 56 -7 0 -189 -216 0 196c0,3 2,6 4,8 2,2 4,4 7,4l17 3 0 5 -28 0 -27 0 -28 0 0 -5 17 -3c4,0 6,-2 8,-4 2,-3 3,-6 3,-9l0 -231c0,-3 -1,-5 -3,-8 -2,-2 -5,-4 -8,-4l-17 -3 0 -5 28 0 5 0 17 0c4,0 7,1 9,4l164 188 0 -172c0,-3 -1,-5 -3,-8 -2,-2 -5,-4 -8,-4l-16 -3 0 -5 27 0 28 0 27 0 0 5 0 0zm-294 0l-16 3c-3,0 -6,2 -8,4 -2,3 -3,6 -3,9l0 46 0 113c0,18 -5,34 -14,50 -9,15 -21,27 -36,36 -15,9 -32,13 -50,13l-17 0c-18,0 -33,-4 -46,-13 -14,-9 -24,-21 -31,-36 -7,-15 -10,-32 -10,-50l0 -113 0 -46 0 0c0,-3 -1,-6 -3,-9 -2,-2 -5,-3 -8,-4l-17 -3 0 -5 87 0 0 5 -17 3c-3,0 -5,2 -7,4 -2,3 -3,6 -3,9l0 46 0 130c0,12 3,24 9,34 5,10 14,18 24,24 10,6 21,9 33,9l12 0c12,0 23,-3 33,-9 10,-6 18,-14 24,-24 6,-10 9,-22 9,-34l0 -130 0 -46c0,-4 -1,-6 -3,-9 -2,-2 -4,-4 -7,-4l-17 -3 0 -5 82 0 0 5 0 0z"/>
    </g>
    <path class="fil0" d="M6948 4624l-33 -86 -34 86 67 0zm101 110l0 5 -84 0 0 -5 8 -2c3,0 6,-2 8,-4 2,-3 3,-6 3,-9 0,-1 -1,-3 -1,-4l-29 -74 -79 0 -29 75c0,1 0,2 0,3 0,3 1,6 2,8 2,3 5,4 7,5l9 2 0 5 -74 0 0 -5 7 -2c6,-1 12,-3 17,-7 4,-4 8,-9 10,-15l95 -246 2 0 94 246c2,5 6,10 10,14 5,4 11,7 17,8l7 2zm-283 -142c0,-18 -5,-35 -14,-50 -9,-16 -21,-28 -36,-37 -16,-9 -32,-13 -51,-13l-54 0c-2,0 -4,1 -5,2 -2,1 -2,3 -2,4l0 210c0,2 0,4 2,5 1,1 3,2 5,2l54 0c19,0 35,-4 51,-13 15,-10 27,-22 36,-37 9,-15 14,-32 14,-50l0 -23zm-95 -124c23,0 44,6 64,17 19,11 34,27 46,46 11,20 17,41 17,64l0 17c0,23 -6,44 -17,63 -12,20 -27,35 -46,47 -20,11 -41,17 -64,17l-79 0 -18 0 -27 0 0 -5 16 -4c3,0 6,-1 8,-4 2,-2 3,-5 3,-8l0 -229c0,-4 -1,-6 -3,-9 -2,-2 -5,-3 -8,-4l-16 -3 0 -5 27 0 30 0 67 0 0 0zm-229 156l-34 -86 -33 86 67 0zm101 110l0 5 -84 0 0 -5 8 -2c3,0 5,-2 7,-4 3,-3 4,-6 4,-9 0,-1 -1,-3 -2,-4l-28 -74 -79 0 -29 75c0,1 0,2 0,3 0,3 0,6 2,8 2,3 4,4 7,5l9 2 0 5 -74 0 0 -5 6 -2c7,-1 13,-3 17,-7 5,-4 9,-9 11,-15l95 -246 2 0 94 246c2,5 5,10 10,14 5,4 10,7 17,8l7 2zm-275 -258c-4,1 -6,2 -8,4 -2,3 -3,5 -3,8l0 230c0,3 1,6 3,8 2,3 4,4 8,4l16 4 0 5 -86 0 0 -5 16 -4c3,0 6,-1 8,-4 2,-2 3,-5 3,-8l0 -222 -89 193 -14 29 -11 0 -3 -7 -103 -222 0 229c0,4 1,6 4,8 2,3 4,4 7,4l17 4 0 5 -82 0 0 -5 17 -4c2,0 5,-1 7,-4 2,-2 3,-5 3,-8l0 -230c0,-3 -1,-5 -3,-8 -2,-2 -5,-3 -7,-4l-17 -3 0 -5 27 0 36 0c5,0 9,1 12,3 4,2 6,5 8,9l83 179 83 -179c1,-4 4,-7 7,-9 4,-2 8,-3 12,-3l38 0 27 0 0 5 -16 3zm-488 242c0,3 1,6 3,8 3,3 5,4 8,4l17 4 0 5 -28 0 -31 0 -28 0 0 -5 17 -4c3,0 5,-1 8,-4 2,-2 3,-5 3,-8l0 -123 -152 0 0 123c0,3 2,6 4,8 2,3 4,4 7,4l17 4 0 5 -28 0 -31 0 -28 0 0 -5 17 -4c3,0 5,-1 7,-4 3,-2 4,-5 4,-8l0 -230c0,-3 -1,-5 -4,-8 -2,-2 -4,-3 -7,-4l-17 -3 0 -5 28 0 31 0 28 0 0 5 -17 3c-3,1 -5,2 -7,4 -2,3 -4,5 -4,8l0 90 152 0 0 -90c0,-3 -1,-5 -3,-8 -3,-2 -5,-3 -8,-4l-17 -3 0 -5 28 0 31 0 28 0 0 5 -17 3c-3,0 -5,2 -8,4 -2,3 -3,5 -3,8l0 230zm-346 -94l-34 -86 -33 86 67 0zm100 110l0 5 -84 0 0 -5 9 -2c2,0 5,-2 7,-4 2,-3 3,-6 3,-9 0,-1 0,-3 -1,-4l-28 -74 -80 0 -29 75c0,1 0,2 0,3 0,3 1,6 3,8 2,3 4,4 7,5l9 2 0 5 -74 0 0 -5 6 -2c6,-1 12,-3 17,-7 5,-4 8,-9 11,-15l94 -246 2 0 94 246c2,5 6,10 11,14 4,4 10,7 16,8l7 2zm-251 -261l-17 3c-2,1 -5,2 -7,4 -2,3 -3,5 -3,8l0 198c0,45 -10,78 -31,99 -20,21 -49,31 -87,31l0 -13c14,0 28,-4 41,-12 13,-7 24,-20 33,-37 8,-18 13,-40 13,-68l0 -197c0,-4 -1,-6 -4,-9 -2,-2 -4,-3 -7,-4l-17 -3 0 -5 28 0 31 0 27 0 0 5zm-138 119c0,-18 -5,-35 -14,-50 -9,-16 -21,-28 -36,-37 -16,-9 -32,-13 -50,-13l-55 0c-2,0 -4,1 -5,2 -2,1 -2,3 -2,4l0 210c0,2 0,4 2,5 1,1 3,2 5,2l55 0c18,0 34,-4 50,-13 15,-10 27,-22 36,-37 9,-15 14,-32 14,-50l0 -23zm-95 -124c23,0 44,6 64,17 19,11 34,27 46,46 11,20 17,41 17,64l0 17c0,23 -6,44 -17,63 -12,20 -27,35 -46,47 -20,11 -41,17 -64,17l-79 0 -18 0 -27 0 0 -5 16 -4c3,0 6,-1 8,-4 2,-2 3,-5 3,-8l0 -229c0,-4 -1,-6 -3,-9 -2,-2 -5,-3 -8,-4l-16 -3 0 -5 27 0 30 0 67 0 0 0zm-229 156l-34 -86 -33 86 67 0zm101 110l0 5 -84 0 0 -5 8 -2c3,0 5,-2 7,-4 3,-3 4,-6 4,-9 0,-1 -1,-3 -2,-4l-28 -74 -79 0 -29 75c0,1 0,2 0,3 0,3 0,6 2,8 2,3 4,4 7,5l9 2 0 5 -74 0 0 -5 6 -2c7,-1 13,-3 17,-7 5,-4 9,-9 11,-15l95 -246 2 0 94 246c2,5 5,10 10,14 5,4 10,7 17,8l7 2zm-251 -126l-17 3c-3,1 -6,2 -8,4 -2,3 -3,6 -3,9l0 17 0 44 0 29c0,3 -1,5 -3,6 -13,9 -28,16 -45,19 -17,4 -34,7 -49,7 -15,1 -23,1 -23,1 -18,0 -36,-4 -54,-11 -17,-7 -33,-17 -47,-31 -13,-13 -24,-28 -31,-46 -7,-17 -10,-35 -10,-54 0,-19 4,-37 11,-55 7,-19 18,-35 32,-49 14,-14 31,-25 49,-32 19,-7 38,-11 58,-11 16,0 35,2 55,5 21,4 38,11 53,21 3,2 4,4 4,8l0 59 -8 0 -2 -7c-2,-12 -6,-23 -13,-32l-2 -3c-11,-11 -22,-20 -36,-26 -13,-7 -27,-10 -42,-10 -21,0 -41,6 -60,18 -20,12 -36,27 -48,47 -12,20 -19,42 -19,65 0,22 7,44 19,64 12,20 28,35 48,47 19,12 39,18 60,18 21,0 41,-7 59,-19l1 -1c0,0 1,-1 3,-3 5,-5 8,-12 8,-19l0 -66c0,-3 -1,-6 -3,-9 -2,-2 -5,-3 -8,-4l-18 -3 0 -5 89 0 0 5 0 0z"/>
    <g>
     <path class="fil0" d="M5910 2677c-4,-3 -8,-6 -13,-8 -1,1 -2,2 -3,3 -2,3 -4,6 -5,8l-10 -8c2,-2 4,-5 6,-7 11,-16 25,-35 49,-19 16,11 12,24 3,37 -4,5 -8,10 -12,15 -1,2 -3,4 -4,5l-9 -8c1,-2 3,-3 4,-5 1,-1 2,-3 3,-4 -3,-3 -6,-6 -9,-9l0 0zm-5 -18c4,3 8,5 12,8 4,3 7,6 10,9 5,-8 8,-15 1,-20 -10,-6 -17,-3 -23,3zm-62 -5l19 -33 -13 -7 6 -11 37 20 -6 10 -13 -7 -19 34 -11 -6zm-10 -55l-15 47 -12 -4 16 -47 11 4zm-66 24c1,1 3,3 5,4 2,1 4,2 6,2 2,1 5,0 7,-1 2,-1 3,-2 3,-3 0,-1 0,-1 0,-2 0,-1 0,-3 -1,-3 -1,-1 -3,-2 -4,-3 -1,0 -1,0 -2,0l0 0 0 0 0 0c-6,0 -11,-3 -14,-6 -4,-4 -6,-9 -6,-14l0 0 0 0 0 0c1,-5 4,-9 8,-12 4,-2 9,-4 14,-3 5,0 9,2 12,5 3,3 5,6 6,8l-11 6c0,-2 -1,-4 -3,-5 -1,-1 -3,-2 -5,-2 -2,0 -4,0 -6,1 -2,1 -3,2 -3,3l0 0 0 0 0 0c0,2 1,3 2,4 2,2 4,3 7,3l0 0c1,0 2,0 3,1 4,0 8,2 11,5 3,4 5,8 4,13 0,1 0,2 0,3 -1,5 -5,9 -9,11 -4,3 -9,4 -14,4 -4,-1 -8,-2 -12,-5 -3,-2 -6,-5 -8,-9l10 -5zm-63 -34l0 13 2 0c4,0 9,0 14,0 0,0 0,0 1,0 2,0 4,-1 6,-3 2,-1 3,-2 3,-3 0,0 0,0 0,0l0 0c0,-1 0,-1 0,-1 -1,-3 -3,-5 -7,-6 -5,-1 -11,-1 -17,-1l-2 1zm30 45c-3,-6 -6,-10 -9,-14 -2,-2 -5,-4 -7,-6 -4,0 -8,0 -13,0l-1 0 0 16 -12 0 0 -47 0 -5 5 -1c3,0 5,0 7,-1 8,-1 16,0 23,1 7,3 13,8 14,16 1,0 1,1 1,1l0 0c0,1 0,1 0,1 0,6 -3,10 -7,14 -1,0 -2,1 -3,1 1,1 1,2 2,3 3,4 7,9 10,15l-10 6zm-69 -42c-2,0 -4,0 -6,1 -9,1 -19,3 -19,6 0,3 0,6 0,8l24 -5 2 12 -23 5c0,2 1,4 2,6l0 0 1 3c0,0 2,0 6,-1 6,0 13,-2 18,-4l3 12c-5,1 -13,4 -20,4 -8,2 -16,0 -19,-7l-1 -3 0 0c-4,-12 -6,-18 -5,-30 1,-14 16,-16 29,-18 2,0 4,-1 6,-1l2 12zm-94 14l27 30 3 -39 12 1 -9 57 -42 -41 9 -8zm-21 14l22 43 -10 5 -23 -42 11 -6zm-40 85l-30 -43 9 -6 46 10 -17 -27 10 -6 24 38 4 6 -9 6 -46 -12 19 27 -10 7zm-66 -1c1,2 2,3 4,5 4,4 9,9 13,12 8,7 17,12 22,5 5,-5 6,-10 3,-15 -3,-7 -11,-16 -24,-26l8 -10c14,12 23,22 27,31 5,10 3,19 -4,28 -12,14 -26,7 -39,-3 -6,-4 -10,-9 -15,-14 -1,-1 -3,-3 -4,-4l9 -9zm506 15c-1,2 -2,3 -2,4 1,2 2,4 3,5 0,0 1,1 1,1 2,2 5,3 7,4 2,0 3,0 4,-1l0 0 0 0 0 0c2,-2 2,-4 1,-6 0,-3 -3,-6 -5,-8 -1,-1 -1,-2 -2,-2l0 0c-3,-5 -4,-9 -4,-13 1,-5 3,-9 6,-12 1,0 1,0 2,-1l0 0c4,-3 9,-4 13,-4 5,1 9,3 13,6 4,3 6,8 8,12 1,5 1,9 -2,14l-10 -6c0,-1 0,-3 0,-4 -1,-3 -2,-5 -4,-7 -2,-2 -4,-3 -6,-3 -1,0 -3,1 -5,2l0 0c0,0 -1,0 -1,1 -1,0 -1,1 -2,3 0,1 1,3 2,5l0 0c1,0 1,1 1,1 3,3 6,8 8,13 2,5 1,11 -4,17l0 0c0,0 -1,1 -1,1l0 0c-4,4 -9,5 -14,4 -4,-1 -9,-4 -13,-7 -1,-1 -1,-1 -2,-2 -3,-3 -5,-7 -6,-12 0,-4 1,-8 4,-12l10 7z"/>
    </g>
    <path class="fil0" d="M5467 3108l18 21 5 5 -5 3c-3,2 -5,4 -7,7 -8,6 -16,13 -25,16 -5,2 -10,1 -14,0 -5,-2 -9,-6 -13,-10 -3,-4 -5,-9 -6,-14 0,-6 0,-12 1,-16l12 4c-1,2 -1,6 -1,10 1,3 2,6 4,8 2,3 4,5 7,6 2,1 4,1 6,1 7,-3 14,-9 21,-15 0,0 1,-1 2,-2l-14 -16 9 -8z"/>
    <g>
     <path class="fil0" d="M5491 3171c-1,0 -2,1 -2,2 -4,3 -6,6 -6,10 0,4 2,8 4,12 0,0 0,0 1,0 2,3 6,4 10,4 4,1 8,-1 11,-3 0,0 0,0 0,0 4,-3 8,-8 9,-13 1,-3 0,-7 -3,-11 0,-1 -1,-1 -1,-2 -4,-4 -8,-5 -12,-5 -4,1 -8,3 -11,6l0 0zm-11 -7c1,-1 2,-2 3,-3 5,-4 12,-7 18,-8 8,0 15,2 22,9 0,1 1,2 2,2 5,8 7,15 5,21 -1,9 -7,16 -13,20 0,1 0,1 -1,1 -5,4 -12,6 -19,5 -7,0 -14,-3 -19,-8 0,0 0,-1 -1,-1 -4,-6 -7,-13 -6,-20 0,-6 3,-13 9,-18z"/>
    </g>
    <path class="fil0" d="M5569 3209c-1,-2 -3,-4 -5,-6 -2,-2 -4,-4 -5,-4 -3,-1 -7,0 -11,2 -4,2 -8,5 -9,9 -2,5 -3,10 -2,16 1,4 4,7 8,10 3,1 5,3 8,3 2,0 5,0 7,-1 2,-1 4,-5 5,-9 -3,-1 -7,-3 -11,-4 -2,-1 -4,-2 -6,-3l5 -11c1,1 3,1 5,2 7,3 15,6 18,9l4 3 -2 4c0,0 0,1 -1,2 -2,7 -5,14 -11,17 -5,3 -10,4 -15,3 -4,-1 -8,-2 -12,-5 -8,-4 -12,-10 -14,-17 -2,-8 0,-17 3,-24 2,-6 8,-12 14,-15 7,-3 14,-5 20,-3 4,1 8,4 11,7 3,4 6,8 7,11l-11 4z"/>
    <path class="fil0" d="M5616 3214c4,2 7,3 11,4 4,2 8,3 13,4l6 2 -1 5c-1,7 -3,13 -5,19 -1,6 -3,11 -6,17 -3,4 -8,7 -13,9 -5,1 -11,1 -16,0 -8,-3 -13,-7 -17,-11 -3,-4 -5,-9 -6,-14l11 -3c1,4 2,7 4,9 3,3 6,5 12,7 2,1 6,1 8,0 3,-1 5,-2 6,-3 3,-5 4,-10 6,-15 1,-3 2,-7 3,-12 -3,0 -6,-1 -9,-2 -4,-2 -7,-3 -11,-4l4 -12z"/>
    <g>
     <path class="fil0" d="M5681 3270c-5,0 -10,-1 -16,-1 0,2 0,4 0,6 -1,2 -1,4 -1,7l-12 0c0,-3 0,-6 1,-8 1,-11 4,-22 8,-31 6,-9 14,-15 23,-15 1,0 2,0 2,0 28,2 25,28 23,50 0,3 0,6 0,8l-12 -1c0,-3 0,-5 0,-8 1,-1 1,-3 1,-5 -6,-1 -11,-1 -17,-2l0 0zm-13 -13c5,0 10,1 15,1 5,1 10,1 15,2 0,-10 -3,-19 -13,-20 0,0 0,0 -1,0 -5,0 -9,4 -12,9 -2,3 -3,5 -4,8z"/>
    </g>
    <polygon class="fil0" points="5738,3234 5739,3248 5764,3226 5772,3235 5753,3252 5776,3274 5768,3283 5744,3260 5739,3264 5740,3284 5728,3284 5726,3234 "/>
    <g>
     <path class="fil0" d="M5803 3238c0,3 0,5 0,8l26 -8c-1,-3 -3,-6 -4,-9 -3,-5 -7,-7 -12,-5 -7,2 -10,8 -10,14l0 0zm-6 34c-4,-12 -7,-24 -6,-34 0,-12 5,-21 18,-26 11,-3 19,1 26,11 5,8 9,20 13,35l-12 3c-1,-4 -2,-8 -3,-12l-28 9c1,3 2,7 3,11l-11 3z"/>
    </g>
    <g>
     <path class="fil0" d="M5865 3206l9 15c1,-1 3,-2 4,-3 3,-2 5,-4 8,-6 6,-8 8,-13 8,-16 0,-1 0,-2 0,-2 -1,-1 -1,-1 -2,-1 -2,-1 -5,-1 -7,0 -6,3 -11,7 -17,11 -1,1 -2,1 -3,2l0 0zm11 41l-25 -39 -3 -5 5 -4c3,-1 6,-3 9,-5 5,-4 11,-8 17,-11 5,-3 11,-3 16,-2 3,1 6,3 8,5 2,3 4,6 3,10 0,3 -1,7 -3,12 2,0 3,0 5,0 6,1 12,3 17,7l-7 10c-3,-2 -8,-4 -12,-5 -4,0 -8,0 -13,1 -2,3 -5,5 -8,7 -2,1 -3,2 -5,3l6 9 -10 7z"/>
    </g>
    <path class="fil0" d="M5952 3193c-5,-7 -10,-13 -15,-18 -3,-4 -7,-8 -10,-12l-11 10 -8 -9 31 -28 8 9 -11 10c3,4 7,8 10,12 5,5 11,12 15,19l-9 7z"/>
    <g>
     <path class="fil0" d="M5976 3110c-6,8 -2,16 5,23l17 -24c-1,0 -1,0 -1,-1 -8,-5 -15,-7 -21,2l0 0zm13 47c-2,-2 -4,-4 -6,-5 -14,-12 -32,-27 -17,-49 11,-17 25,-13 38,-5 4,3 8,6 11,9 4,3 6,5 9,7l-7 10c-3,-2 -6,-5 -9,-7l-1 -1 -17 25 1 1c2,2 5,4 6,6l-8 9z"/>
    </g>
    <path class="fil0" d="M5997 2652c2,-4 3,-7 5,-11 1,-2 -2,-3 -1,-6 3,-8 7,-17 12,-24 9,-16 17,-29 26,-42 9,-14 20,-27 33,-43 17,-20 33,-39 54,-53 22,-15 48,-25 85,-27 27,-1 50,7 71,23 20,15 38,37 54,65 19,31 35,52 51,71 6,8 12,15 17,22 8,11 17,19 28,26 11,7 24,13 38,17l12 3 -7 10c-8,12 -15,24 -19,37 -4,12 -6,25 -5,38 0,9 1,18 1,28 0,24 0,51 6,87 5,32 5,60 -1,85 -6,25 -18,46 -40,63 -29,22 -56,31 -82,33 -26,2 -51,-2 -76,-7 -21,-4 -37,-8 -52,-12 -16,-4 -30,-9 -48,-16 -10,-3 -21,-9 -31,-15 -3,-1 -7,-1 -9,-4 -1,-3 -7,-10 -12,-13l10 -4c6,2 5,-1 11,2 3,2 5,3 8,4 10,6 20,11 29,14 17,7 31,11 46,16 15,4 31,7 51,11 24,5 48,9 71,7 23,-2 47,-10 74,-30 18,-14 29,-31 34,-53 5,-22 5,-49 0,-79 -6,-36 -6,-64 -6,-88 -1,-10 -1,-19 -1,-29 -1,-14 1,-29 6,-43 3,-11 8,-22 15,-32 -12,-4 -23,-9 -32,-16 -13,-8 -23,-17 -32,-29 -6,-8 -12,-15 -18,-22 -15,-20 -32,-41 -51,-73 -16,-26 -32,-47 -50,-61 -18,-13 -38,-20 -60,-19 -33,2 -57,11 -76,24 -20,13 -35,31 -51,50 -13,16 -23,29 -32,41 -8,13 -16,26 -25,41 -6,9 -10,20 -15,30 -2,4 -13,6 -14,8l-2 -5zm-213 675c-1,5 5,3 4,7 -4,20 -6,37 -7,55 -1,22 -1,44 1,69 2,24 4,48 12,70 8,22 22,43 48,63 18,14 38,20 60,20 23,-1 48,-8 76,-20 34,-15 60,-23 84,-29 9,-3 18,-5 27,-8 14,-4 29,-6 43,-5 12,0 24,2 35,6 1,-12 3,-24 7,-35 5,-14 11,-27 21,-39 5,-7 11,-14 16,-22 15,-20 31,-42 57,-69 22,-21 38,-42 46,-63 9,-21 10,-42 3,-64 -9,-31 -24,-52 -42,-67 -18,-15 -39,-25 -61,-36 -19,-8 -34,-15 -48,-20 -15,-5 -29,-9 -47,-14 -10,-3 -47,-9 -58,-11l-3 0c-1,-3 23,0 25,-6 0,-1 -3,-7 -4,-8 16,2 37,6 45,8 17,5 32,9 47,15 15,5 31,12 50,21 23,11 46,22 65,38 20,17 37,40 48,75 8,26 6,51 -4,75 -10,23 -27,46 -49,69 -26,26 -41,47 -56,67 -6,8 -11,15 -17,23 -8,10 -14,21 -18,33 -4,13 -6,27 -6,41l-1 12 -11 -4c-13,-5 -27,-8 -41,-8 -12,-1 -25,1 -37,4 -8,3 -18,6 -28,8 -23,7 -48,14 -81,29 -30,13 -57,20 -83,21 -26,1 -50,-6 -71,-23 -29,-23 -44,-47 -53,-71 -9,-25 -11,-49 -13,-75 -2,-26 -2,-48 -1,-71 1,-15 3,-29 5,-45 1,-8 9,-13 11,-22l4 6zm-130 13c1,4 6,-12 7,-8 1,8 3,21 3,23 2,19 3,34 3,50 0,16 0,33 -2,54 -2,26 -4,50 -12,75 -9,24 -25,48 -54,71 -21,17 -45,24 -71,23 -25,-1 -53,-8 -82,-21 -33,-15 -59,-22 -82,-29 -10,-2 -19,-5 -28,-8 -12,-3 -24,-5 -37,-4 -14,0 -27,3 -41,8l-11 4 0 -12c-1,-14 -3,-28 -7,-41 -4,-12 -9,-23 -17,-33 -6,-8 -12,-15 -18,-23 -14,-20 -30,-41 -55,-67 -23,-23 -40,-46 -50,-69 -9,-24 -11,-49 -3,-75 11,-35 27,-58 47,-75 20,-16 42,-27 66,-38 19,-9 34,-16 49,-21 15,-6 30,-10 48,-15 10,-3 34,-7 46,-9l-9 14 16 3 -4 0c-11,2 -35,6 -45,9 -17,5 -32,9 -46,14 -15,5 -29,12 -48,20 -22,11 -44,21 -62,36 -17,15 -32,36 -42,67 -7,22 -5,43 3,64 9,21 25,42 46,63 26,27 42,49 57,69 6,8 11,15 17,22 9,12 16,25 20,39 4,11 6,23 7,35 12,-4 24,-6 35,-6 15,-1 29,1 44,5 9,3 18,5 27,8 23,6 50,14 84,29 28,12 53,19 76,20 22,0 42,-6 60,-20 26,-20 40,-41 48,-63 7,-22 9,-46 11,-70 2,-21 2,-37 2,-53 0,-15 -1,-30 -3,-48 0,-2 -3,-26 -4,-28 0,-2 0,-5 -1,-7l8 -2 4 20zm-562 -216c-20,0 -39,-4 -58,-11l0 0c-29,-11 -57,-29 -80,-50 -24,-21 -40,-48 -50,-77 -11,-34 -14,-69 -10,-101 2,-27 6,-47 9,-65 3,-24 7,-45 8,-74 0,-18 5,-33 0,-48 -5,-14 -13,-27 -23,-40l-9 -11 14 -3c16,-3 30,-8 43,-16 13,-8 18,-21 30,-36 17,-22 28,-40 40,-62 9,-15 20,-32 35,-56 17,-26 42,-52 72,-70 26,-17 56,-28 88,-29 31,-1 63,3 92,14 15,5 29,12 42,21 -4,-15 -5,-30 -5,-45 0,-31 8,-64 20,-92 12,-30 32,-54 56,-73 28,-22 60,-37 91,-45 27,-6 47,-10 65,-13 24,-5 44,-8 71,-17 18,-6 33,-17 45,-27 12,-10 22,-22 30,-35l7 -13 8 13c8,13 17,25 29,35 13,10 27,21 45,27 27,9 48,12 72,17 18,3 38,7 64,13 31,8 64,23 91,45 24,19 45,43 57,73 12,28 19,61 19,92 1,14 -1,29 -4,42 12,-8 26,-14 40,-19 30,-10 62,-14 94,-13 32,1 61,12 87,28 30,19 55,45 73,71 15,24 25,41 34,56 13,22 23,40 40,62 12,15 17,29 30,37 13,8 27,13 43,16l14 3 -9 11c-10,12 -18,26 -23,40 -5,15 0,29 1,47 1,29 4,50 8,74 3,18 6,38 9,65 3,32 0,67 -11,101 -10,29 -26,56 -50,77 -23,21 -51,39 -80,50l0 0c-19,7 -38,11 -57,11 11,11 21,23 29,37 19,30 32,66 39,97 7,32 4,63 -5,92 -10,34 -29,65 -50,88 -18,21 -33,35 -45,48 -18,18 -32,32 -50,55 -11,15 -19,30 -23,45 -5,14 -6,30 -5,46l1 14 -13 -6c-15,-7 -29,-11 -45,-12 -15,-1 -31,1 -50,6 -27,8 -46,17 -68,27 -17,7 -36,16 -61,25 -30,11 -65,18 -100,15 -31,-2 -61,-10 -88,-28 -26,-17 -51,-39 -69,-65 -8,-12 -16,-25 -21,-39 -5,14 -12,27 -21,39 -18,26 -42,48 -69,65 -26,18 -57,26 -87,28 -36,3 -71,-4 -100,-15 -25,-9 -44,-18 -61,-25 -23,-10 -41,-19 -69,-27 -18,-5 -34,-7 -50,-6 -15,1 -30,5 -45,12l-13 6 1 -14c1,-16 0,-32 -4,-46 -5,-15 -12,-30 -24,-45 -17,-23 -32,-37 -49,-55 -13,-13 -27,-27 -46,-48 -21,-23 -39,-54 -50,-88 -9,-29 -11,-60 -5,-92 7,-31 20,-67 39,-97 9,-13 19,-26 30,-37zm388 -508l0 0 0 0 -13 -6 -52 -72c-21,-30 -43,-60 -64,-91l-2 -2 -1 -1c-15,-18 -37,-31 -61,-39 -27,-10 -57,-14 -85,-13 -29,1 -56,11 -80,26 -28,17 -51,41 -67,66 -14,22 -25,39 -34,55 -12,22 -23,40 -41,64 -13,16 -20,31 -35,40 -11,7 -23,12 -36,15 8,11 14,22 18,35 6,16 1,33 1,54 -1,30 -5,51 -9,76 -2,17 -6,37 -8,64 -4,29 -1,62 10,93 8,27 23,51 44,71 22,19 48,36 75,46l0 0c24,9 48,13 71,9 4,-1 8,-2 11,-3 37,-13 72,-23 107,-33 32,-10 64,-20 95,-29 6,-1 9,4 15,3l5 1 1 7c-4,2 -7,4 -11,5 -33,12 -65,20 -97,29l-4 1 -2 1c-35,10 -70,21 -103,31 -20,10 -37,29 -51,51 -18,29 -30,62 -37,92 -6,28 -3,57 5,83 9,32 27,60 46,82 18,20 32,34 45,47 18,18 33,33 51,57 13,16 21,33 26,50 4,12 6,25 6,38 12,-4 25,-7 38,-8 17,-1 36,1 56,7 28,8 48,17 71,27 16,7 34,15 60,25 27,11 60,17 93,14 27,-2 55,-9 79,-25 25,-16 47,-37 64,-60 15,-21 24,-44 27,-67 -1,-39 -1,-76 0,-113 -1,-28 -1,-56 -1,-85 0,-10 8,-11 8,-21l3 5c1,10 7,8 7,19 0,28 0,55 0,82l0 0 0 0c0,37 0,74 0,113 2,23 12,46 27,67 16,23 39,44 63,60 24,16 52,23 80,25 33,3 65,-3 93,-14 25,-10 43,-18 60,-25 23,-10 42,-19 71,-27 20,-6 38,-8 56,-7 13,1 25,4 38,8 0,-13 2,-26 5,-38 5,-17 14,-34 27,-50 18,-24 33,-39 51,-57 12,-13 27,-27 44,-47 20,-22 37,-50 47,-82 8,-26 11,-55 4,-83 -6,-30 -19,-63 -36,-92 -14,-22 -32,-41 -51,-51 -33,-10 -66,-20 -98,-30l-2 -1 -4 -1c-34,-9 -78,-21 -115,-35l3 -5c12,2 20,-6 22,-5 32,9 68,21 98,30 32,9 65,18 101,31 4,1 7,2 11,3 23,4 48,0 71,-9l0 0c27,-10 53,-27 75,-46 21,-20 36,-44 45,-71 10,-31 13,-64 10,-93 -3,-27 -6,-47 -9,-65 -4,-24 -7,-45 -8,-75 -1,-21 -6,-37 0,-53 4,-13 10,-24 18,-35 -13,-4 -25,-9 -36,-15 -15,-10 -21,-25 -34,-41 -18,-24 -29,-42 -42,-64 -9,-16 -19,-33 -34,-55 -16,-25 -39,-49 -67,-66 -23,-15 -50,-25 -79,-26 -29,-1 -60,2 -87,12 -22,7 -42,19 -57,34 -1,2 -2,4 -3,6l0 0 -117 164 -14 12 -12 10 2 -9 1 0 0 -1c5,-7 0,-10 5,-17 17,-25 35,-50 53,-74 23,-33 45,-65 67,-97l1 0c1,-2 2,-3 3,-4 9,-19 13,-40 12,-63 0,-29 -7,-59 -18,-86 -11,-27 -29,-49 -51,-66 -26,-20 -56,-34 -85,-41 -26,-6 -45,-10 -63,-13 -25,-5 -46,-9 -74,-18 -20,-6 -36,-19 -50,-30 -10,-8 -19,-18 -27,-28 -7,10 -16,20 -26,28 -14,11 -30,24 -50,30 -29,9 -50,13 -74,18 -18,3 -38,7 -64,13 -28,7 -59,21 -84,41 -22,17 -41,39 -52,66 -11,27 -18,57 -18,86 0,25 5,49 16,70l1 2 63 88 4 4c16,24 33,47 50,71 0,0 4,18 6,21l-7 -5zm-48 39c-1,-3 -14,-3 -15,-6 -4,-10 -9,-21 -14,-30 -9,-15 -17,-28 -26,-41 -9,-12 -19,-25 -32,-41 -16,-19 -31,-37 -50,-50 -20,-13 -43,-23 -76,-24 -23,-1 -43,6 -60,19 -19,14 -35,35 -50,61 -19,32 -36,53 -52,73 -6,7 -11,14 -17,22 -9,12 -20,21 -32,29 -10,7 -21,12 -32,16 6,10 11,21 15,32 4,14 6,29 6,43 -1,10 -1,19 -1,29 0,24 -1,52 -6,88 -5,30 -6,57 0,79 5,21 16,39 34,53 26,20 50,28 73,30 24,2 47,-2 71,-7 21,-4 36,-7 51,-11 15,-5 29,-9 46,-16 10,-3 22,-9 33,-14 9,-4 22,-9 30,-13l3 9 -19 11c-6,2 9,1 2,5 -3,1 -6,2 -8,3 -12,6 -24,11 -35,15 -17,7 -32,12 -47,16 -15,4 -32,8 -53,12 -25,5 -49,9 -75,7 -26,-2 -53,-11 -82,-33 -22,-17 -35,-38 -41,-63 -6,-25 -5,-53 0,-85 5,-36 6,-63 6,-87 0,-10 0,-19 0,-28 1,-13 -1,-26 -5,-38 -4,-13 -10,-25 -18,-37l-7 -10 11 -3c14,-4 27,-10 39,-17 10,-7 20,-15 27,-26 6,-7 12,-14 18,-22 15,-19 32,-40 50,-71 17,-28 34,-50 54,-65 21,-16 45,-24 72,-23 36,2 63,12 84,27 22,14 38,33 54,53 14,16 24,29 33,43 9,13 17,26 27,42 5,9 10,20 15,31 1,3 3,6 3,8l-4 5zm455 -72c2,-2 0,-4 2,-7 3,-2 28,-28 30,-31 12,-14 21,-25 30,-38 9,-12 18,-26 28,-44 13,-21 24,-42 30,-64 6,-23 7,-48 -3,-80 -7,-22 -20,-38 -38,-50 -20,-12 -45,-21 -74,-26 -37,-7 -63,-16 -86,-24 -9,-4 -18,-7 -27,-9 -14,-5 -27,-12 -38,-20 -10,-8 -18,-16 -26,-25 -7,9 -16,17 -25,25 -12,8 -25,15 -39,20 -9,2 -18,5 -27,9 -23,8 -49,17 -85,24 -30,5 -55,14 -74,26 -19,12 -32,28 -39,50 -9,32 -9,57 -3,80 6,22 18,43 30,64 11,18 20,32 28,44 9,13 19,24 30,38 5,6 11,11 16,17 3,2 -1,7 1,9l2 2 -6 10 -1 -2c-9,-8 -18,-16 -25,-25 -12,-14 -21,-26 -31,-39 -9,-13 -18,-27 -29,-45 -12,-23 -25,-44 -31,-69 -7,-25 -8,-54 3,-89 8,-26 24,-45 45,-59 22,-14 49,-23 80,-29 36,-7 61,-16 84,-24 9,-3 18,-6 27,-9 12,-3 23,-9 33,-17 11,-8 21,-19 29,-30l7 -10 7 10c9,11 18,22 29,30 10,8 21,14 33,17 9,3 18,6 28,9 22,8 48,17 83,24 32,6 59,15 80,29 22,14 37,33 45,59 11,35 11,64 4,89 -7,25 -19,46 -32,69 -11,18 -20,32 -29,45 -9,13 -19,25 -31,39 -2,3 -4,6 -7,8 -1,1 -6,7 -12,13 -8,8 0,-13 -1,-12l-25 18z"/>
    <path class="fil0" d="M6185 2377c12,-45 18,-79 13,-122 -35,10 -69,26 -106,52l-5 -17c37,-25 74,-44 117,-54l9 -2 1 9c6,44 3,87 -12,132l-17 2z"/>
    <path class="fil0" d="M6386 3209c46,-2 80,-6 120,-24 -20,-31 -46,-58 -82,-85l15 -10c35,27 64,57 87,95l5 8 -9 4c-40,18 -82,29 -129,28l-7 -16z"/>
    <path class="fil0" d="M5656 3650c16,44 30,75 59,108 23,-28 46,-66 59,-108l14 11c-10,32 -38,83 -67,116l-7 7 -6 -7c-29,-33 -52,-71 -65,-116l13 -11z"/>
    <path class="fil0" d="M5013 3100c-38,27 -64,48 -88,84 33,16 69,25 114,29l-7 16c-44,-4 -84,-14 -124,-34l-8 -4 5 -8c24,-37 54,-68 94,-93l14 10z"/>
    <path class="fil0" d="M5338 2317c-37,-28 -65,-47 -107,-60 -4,37 -3,75 7,119l-17 -1c-10,-44 -12,-87 -5,-131l2 -9 9 3c42,12 81,31 116,63l-5 16z"/>
    <g>
     <path class="fil0" d="M5715 2886c25,0 45,20 45,45 0,25 -20,45 -45,45 -25,0 -45,-20 -45,-45 0,-25 20,-45 45,-45l0 0zm0 13c18,0 32,14 32,32 0,17 -14,32 -32,32 -17,0 -31,-15 -31,-32 0,-18 14,-32 31,-32z"/>
    </g>
    <g>
     <path class="fil0" d="M5715 2830c56,0 102,45 102,101 0,56 -46,101 -102,101 -56,0 -101,-45 -101,-101 0,-56 45,-101 101,-101l0 0zm0 14c48,0 87,39 87,87 0,48 -39,87 -87,87 -48,0 -87,-39 -87,-87 0,-48 39,-87 87,-87z"/>
    </g>
    <g>
     <path class="fil0" d="M5715 2795c75,0 136,61 136,136 0,75 -61,135 -136,135 -74,0 -135,-60 -135,-135 0,-75 61,-136 135,-136l0 0zm0 10c69,0 126,57 126,126 0,69 -57,126 -126,126 -69,0 -125,-57 -125,-126 0,-69 56,-126 125,-126z"/>
    </g>
    <g>
     <path class="fil0" d="M5976 2670c-67,-66 -159,-107 -261,-107 -101,0 -194,41 -260,107 -67,67 -108,159 -108,261 0,102 41,194 108,260 66,67 159,108 260,108 102,0 194,-41 261,-108 66,-66 107,-158 107,-260 0,-102 -41,-194 -107,-261l0 0zm-641 280c-1,-4 -1,-9 -1,-14 -7,1 -14,3 -20,4 -6,1 -11,3 -16,5 5,2 11,3 16,4 7,1 14,2 21,1zm2 24c-1,-4 -1,-9 -2,-13 -5,1 -10,3 -14,5 -4,1 -7,3 -10,5 4,1 7,1 11,2 5,1 10,1 15,1zm3 22c-1,-3 -2,-7 -2,-11 -4,2 -8,4 -11,6 -3,1 -6,3 -9,5 4,1 7,1 10,1 4,0 8,0 12,-1zm4 22c-1,-4 -2,-8 -2,-12 -4,2 -7,4 -10,6 -3,2 -6,3 -9,6 4,1 7,1 10,1 4,0 7,0 11,-1zm6 22c-1,-4 -2,-8 -3,-12 -3,1 -6,3 -9,4 -3,2 -5,4 -7,6 3,1 7,2 10,2 3,1 6,0 9,0zm8 23c-2,-4 -4,-9 -5,-13 -3,1 -5,3 -8,5 -2,2 -5,5 -7,7 3,1 6,2 10,2 3,0 6,0 10,-1zm8 20c-2,-3 -3,-7 -5,-11 -3,2 -7,5 -10,7 -2,2 -4,4 -6,7 4,0 7,-1 10,-1 4,0 7,-1 11,-2zm11 25c-2,-5 -5,-10 -7,-15 -4,2 -8,5 -12,9 -3,3 -5,6 -7,9 4,0 9,0 13,-1 5,0 9,-1 13,-2zm11 18c-2,-3 -4,-6 -6,-9 -5,3 -10,6 -14,10 -3,3 -6,6 -9,9 4,0 9,-1 13,-2 4,-2 8,-4 12,-6 1,-1 2,-1 4,-2zm12 20c-2,-4 -5,-8 -8,-12 -1,0 -2,1 -3,2 -6,4 -11,8 -15,12 -5,5 -9,9 -12,14 6,0 12,-2 18,-5 7,-3 14,-7 20,-11zm14 19c-3,-4 -5,-8 -8,-12 -8,6 -16,12 -22,19 -6,5 -11,11 -15,17 7,-2 14,-5 21,-8 5,-3 11,-6 17,-10 2,-2 5,-4 7,-6zm13 15c-2,-2 -5,-5 -7,-8 -2,2 -5,4 -8,6 -8,7 -16,14 -23,21 -8,8 -15,16 -21,25 2,-1 4,-1 6,-2 5,-1 9,-3 14,-7 12,-12 25,-23 39,-35zm16 18c-3,-4 -7,-7 -10,-11 -14,12 -28,24 -40,36 -11,11 -21,22 -30,34 3,0 6,-1 9,-2 6,-1 12,-4 18,-8 16,-17 34,-33 53,-49zm-37 84c9,-9 18,-17 27,-26 12,-11 25,-22 36,-34 -7,-6 -13,-12 -20,-18 -20,18 -40,35 -56,53 -16,18 -28,36 -36,55 8,-2 15,-6 22,-10 9,-5 18,-12 27,-20zm-69 -395c-14,0 -27,0 -40,2 -10,1 -21,2 -31,5 11,4 21,6 32,8 12,1 25,0 37,-1 1,-5 1,-9 2,-14zm-2 23c-11,1 -21,2 -31,1 -6,1 -11,3 -16,5 -2,0 -4,1 -6,2 8,3 17,5 25,6 9,2 18,2 27,2 0,-5 0,-10 1,-16zm25 -116c-16,-8 -32,-15 -47,-23 -35,-18 -69,-35 -107,-44 -28,-7 -59,-5 -89,-2 -10,1 -21,1 -32,2 9,6 17,13 25,20 24,18 48,37 75,48 35,15 74,21 112,27 17,3 34,5 50,9 4,-13 8,-25 13,-37zm-22 79c-25,-2 -50,-5 -73,-10 -5,0 -10,0 -15,2 -2,0 -4,1 -6,2 27,9 50,10 72,10 7,0 15,0 22,1 0,-2 0,-3 0,-5zm-79 -48c-12,-2 -23,-2 -34,-1 -8,0 -16,1 -24,4 18,12 38,19 61,25 24,5 50,8 78,11 1,-8 3,-16 5,-25 -16,-3 -33,-6 -50,-8 -12,-2 -24,-4 -36,-6l0 0zm115 -64c-25,-14 -49,-27 -72,-36 -22,-9 -43,-14 -64,-14 5,6 10,12 17,17 8,7 18,13 29,18 11,5 22,11 33,17 15,7 30,15 46,22 3,-8 7,-16 11,-24zm11 -21c-13,-8 -27,-16 -41,-23 -13,-6 -27,-12 -42,-16 2,3 4,5 6,8 3,5 8,10 13,14 19,9 38,19 57,30 2,-4 5,-9 7,-13zm12 -19l-2 -1c-18,-11 -37,-22 -57,-30 2,2 4,5 6,8 4,5 10,11 16,17 10,5 20,11 30,17 2,-3 5,-7 7,-11zm14 -20c-7,-6 -15,-11 -22,-16 -6,-3 -12,-6 -18,-8 4,6 8,12 13,17 5,7 12,13 19,19 3,-4 5,-8 8,-12zm15 -18c-6,-4 -11,-8 -17,-11 -4,-2 -9,-5 -14,-7 2,5 5,9 8,13 4,5 9,10 14,15 3,-3 6,-7 9,-10zm13 -15c-4,-4 -8,-7 -12,-10 -3,-2 -6,-4 -10,-5 2,4 4,8 7,12 2,4 5,7 8,10 3,-2 5,-5 7,-7zm15 -15c-3,-2 -6,-5 -9,-7 -3,-2 -6,-3 -10,-5 2,4 3,7 5,10 2,3 4,7 6,10 3,-3 6,-5 8,-8zm15 -13c-3,-2 -5,-5 -9,-7 -2,-2 -5,-3 -8,-5 1,3 3,6 4,9 2,3 4,6 6,9 2,-2 5,-4 7,-6zm17 -13c-3,-3 -6,-5 -9,-7 -1,-1 -3,-3 -4,-4 0,3 1,5 1,7 1,4 2,7 3,10 3,-2 6,-4 9,-6zm15 -12c-5,-6 -9,-12 -16,-15 0,3 1,6 2,9 2,4 4,8 7,11 2,-1 5,-3 7,-5zm15 -9c-4,-5 -8,-10 -13,-13 1,7 4,12 7,17 2,-1 4,-3 6,-4zm17 -10c-4,-5 -8,-11 -14,-15 1,3 2,7 3,10 1,3 2,6 3,9 3,-1 5,-2 8,-4zm18 -9c-3,-4 -5,-8 -8,-12 -3,-3 -6,-6 -9,-9 0,5 1,9 2,13 1,4 3,9 5,13 3,-2 7,-4 10,-5zm21 -9l-1 -1c-5,-9 -11,-17 -19,-24 1,4 2,9 3,13 1,5 3,11 5,17 4,-2 8,-4 12,-5zm26 -10c-4,-7 -8,-14 -13,-20 -4,-6 -9,-11 -15,-15 1,7 2,14 4,20 2,7 4,14 7,21 6,-2 12,-4 17,-6zm24 -7c-3,-11 -6,-22 -11,-32 -4,-9 -9,-17 -17,-24 0,11 1,21 3,31 2,10 6,20 10,29 5,-1 10,-3 15,-4zm24 -41c-4,-14 -7,-26 -12,-37 -3,-8 -7,-15 -11,-20 -2,9 -3,18 -4,27 -1,12 0,24 1,36 5,11 8,22 11,33 7,-2 14,-3 21,-4 -2,-12 -4,-23 -6,-35zm90 30c2,-17 4,-34 7,-52 5,-38 11,-76 8,-114 -3,-30 -14,-58 -25,-86 -3,-10 -7,-20 -11,-30 -3,10 -7,20 -11,30 -12,28 -23,56 -25,86 -3,38 4,76 10,114 3,17 6,35 8,52 6,0 12,0 18,0 7,0 14,0 21,0zm-48 1c-2,-17 -5,-34 -8,-51 -2,-12 -4,-25 -6,-37 -2,-12 -5,-23 -9,-33 -3,-7 -6,-14 -11,-21 -6,20 -7,42 -5,65 1,25 7,52 12,79 9,-1 18,-2 27,-2zm82 3c5,-28 11,-55 12,-80 2,-23 1,-45 -5,-65 -5,7 -8,14 -11,21 -4,10 -7,21 -9,33l0 0c-2,12 -4,25 -5,37 -3,17 -5,34 -7,51 8,0 17,1 25,3zm49 10c0,-3 1,-5 2,-8 2,-10 4,-20 5,-29 1,-10 2,-20 2,-29 -5,6 -10,15 -13,24 -5,12 -8,25 -10,38 5,1 9,3 14,4zm21 7c2,-9 4,-18 6,-27 1,-8 1,-16 1,-23 -5,7 -9,14 -12,21 -2,5 -4,11 -5,16 -1,3 -2,6 -2,9 4,1 8,2 12,4zm21 7c4,-10 7,-20 9,-32 -4,4 -7,8 -10,12 -4,6 -7,11 -10,16 4,2 7,3 11,4zm19 9c2,-4 3,-9 5,-15 0,-4 1,-9 2,-13 -3,2 -6,5 -8,9 -4,4 -7,9 -9,14 3,2 7,4 10,5zm22 11c2,-7 5,-15 5,-24 -3,2 -5,4 -8,7 -3,3 -7,7 -9,11 4,2 8,4 12,6zm16 10c2,-3 3,-6 4,-10 1,-3 1,-6 2,-10 -3,2 -5,5 -7,7 -3,3 -5,6 -6,9 2,1 5,3 7,4zm19 13c2,-7 3,-14 4,-20 -3,2 -5,4 -7,6 -3,2 -5,4 -7,7 3,2 7,4 10,7zm17 13c3,-5 5,-11 7,-16 -2,1 -4,2 -6,3 -3,2 -6,5 -8,7 2,2 5,4 7,6zm17 15c4,-6 7,-12 10,-18 -3,1 -6,3 -8,4 -3,2 -6,5 -9,7 2,2 5,4 7,7zm15 13c2,-3 5,-7 7,-11 2,-2 3,-5 4,-8 -3,1 -6,2 -9,4 -3,3 -6,5 -9,8 2,2 4,4 6,6 0,1 0,1 1,1zm16 17c3,-4 6,-8 9,-12l0 0c2,-4 4,-8 6,-13 -4,1 -8,3 -12,6 -5,2 -9,5 -13,9 3,3 7,7 10,10zm13 17c9,-9 19,-18 23,-30 -4,2 -9,5 -14,8 -6,4 -11,8 -16,13 2,3 5,6 7,9zm16 21l1 -2c13,-12 27,-24 34,-38 -6,2 -13,5 -19,9 -9,5 -18,11 -26,17 3,5 6,9 10,14zm15 25c10,-9 20,-17 29,-26 7,-8 14,-16 19,-25 -9,4 -18,8 -27,13 -10,6 -21,13 -31,21 3,5 7,11 10,17zm-250 -184c2,-10 4,-20 7,-29l-1 0c1,-13 2,-25 2,-38 0,-9 -1,-18 -2,-27 -1,2 -2,3 -3,5 -3,6 -6,13 -9,19 -2,22 -6,44 -11,67 6,1 11,2 17,3zm257 196c20,-11 40,-22 60,-30 5,-5 9,-9 13,-14 2,-3 4,-6 5,-9 -8,2 -16,5 -23,9 -10,4 -20,9 -29,15 -9,9 -18,17 -28,25 0,1 1,3 2,4zm31 79c15,-4 32,-6 48,-9 38,-6 76,-12 112,-26 27,-11 51,-30 74,-49 9,-7 17,-13 26,-20 -11,0 -22,-1 -33,-2 -30,-2 -60,-5 -88,2 -38,9 -72,26 -107,44 -15,8 -30,15 -45,22 5,12 9,25 13,38zm-16 -47c15,-6 29,-14 44,-21 11,-6 22,-11 33,-17 11,-5 21,-11 29,-18 6,-5 12,-11 17,-17 -21,0 -42,6 -64,14 -23,9 -46,22 -70,35 4,8 8,16 11,24zm23 80c27,-2 52,-6 76,-11 23,-5 43,-13 61,-25 -8,-2 -16,-3 -24,-4 -11,-1 -22,0 -34,1l0 0c-12,2 -24,4 -37,6 -15,3 -31,5 -47,8 2,9 3,17 5,25zm3 23c4,0 7,0 10,-1l0 0c28,-2 56,-4 81,-13 -2,0 -5,-1 -8,-2l0 0c-7,-2 -16,-4 -26,-5 -19,3 -38,5 -59,7 1,5 2,10 2,14zm2 24l3 0c19,-1 39,-2 65,-8 -8,-3 -17,-4 -26,-5 -14,-2 -28,-2 -43,-1 0,4 1,9 1,14zm0 22c10,0 19,0 28,-1 8,0 16,-1 23,-3 -15,-7 -33,-8 -51,-9 0,3 0,6 0,9 0,1 0,3 0,4zm-1 21c8,1 15,1 22,1 5,-1 10,-1 16,-2 -5,-2 -9,-4 -14,-5 -8,-2 -15,-4 -23,-5 0,4 0,8 -1,11zm-2 22c6,1 12,2 18,2 5,0 10,0 14,-1 -3,-3 -7,-5 -12,-7 -6,-2 -12,-4 -18,-5 -1,3 -1,7 -2,11zm-3 21c5,1 10,1 14,1 4,0 8,-1 11,-1 -2,-2 -4,-3 -7,-5 -5,-2 -10,-4 -16,-6 0,4 -1,7 -2,11zm-4 22c4,1 9,1 13,1 4,0 8,0 12,-1 -3,-2 -6,-4 -9,-6 -4,-2 -9,-4 -14,-6 -1,4 -1,8 -2,12zm-7 22c4,1 8,1 12,1 3,-1 7,-1 10,-2 -2,-1 -5,-3 -7,-5 -3,-2 -7,-4 -11,-5 -1,4 -2,7 -4,11zm-8 24c4,0 8,0 12,1 4,0 9,0 13,-1 -3,-2 -6,-5 -9,-7 -3,-2 -7,-4 -11,-6 -1,4 -3,8 -5,13zm-8 20c4,1 8,2 11,2 4,0 7,1 10,0 -2,-2 -4,-4 -6,-6 -3,-2 -7,-4 -11,-6 -1,4 -3,7 -4,10zm-8 17c4,1 8,3 12,3 3,1 6,1 10,1 -2,-2 -5,-4 -7,-5 -4,-3 -8,-4 -12,-6 -1,2 -2,5 -3,7zm-14 24c5,2 10,3 15,4 5,1 10,1 15,1 -3,-3 -6,-6 -9,-9 -4,-4 -8,-7 -12,-10 -3,5 -6,10 -9,14zm-10 16c7,3 14,6 20,8 5,1 10,2 15,3 -3,-3 -6,-5 -10,-7 -6,-4 -13,-8 -20,-11 -2,2 -3,5 -5,7zm-13 18c8,5 17,10 25,13 7,3 14,5 21,6 -5,-5 -10,-10 -15,-14 -7,-6 -15,-11 -23,-15 -3,3 -5,7 -8,10zm-18 23c10,7 21,13 32,18 9,4 19,7 29,10 -5,-7 -12,-14 -19,-21 -9,-8 -19,-16 -29,-23 -5,5 -9,11 -13,16zm-20 20c13,12 28,22 43,30 13,7 25,12 39,16 -4,-5 -8,-11 -13,-17 -6,-8 -13,-16 -20,-23l-1 0c-12,-5 -24,-12 -35,-19 -2,3 -5,6 -8,8 -2,2 -3,4 -5,5zm-56 45c9,15 18,30 27,46 19,34 38,67 64,95 20,22 46,38 72,53 9,5 18,11 27,17 -3,-10 -6,-21 -9,-31 -9,-29 -17,-58 -33,-83 -22,-31 -50,-58 -79,-84 -13,-12 -25,-24 -38,-36 -10,8 -20,16 -31,23zm113 42c7,3 12,6 17,9 4,2 8,4 12,6 -15,-23 -31,-45 -49,-65 -16,-9 -30,-19 -44,-31 -3,4 -7,7 -11,10 12,12 25,24 37,35 13,12 26,24 38,36zm-184 -5c0,1 0,2 0,3 3,13 7,24 12,35 4,9 8,17 12,24 0,-10 0,-21 -2,-31 -2,-12 -5,-25 -9,-37 -4,2 -9,4 -13,6zm-22 7c0,1 0,2 0,3 2,9 4,18 8,27 3,7 6,14 10,20 1,-6 1,-14 0,-21 -1,-10 -2,-20 -4,-31 -1,0 -1,-1 -1,-2 -4,1 -9,3 -13,4zm-23 7c1,7 3,14 5,21 2,5 4,11 6,15 2,-6 3,-12 4,-19 0,-6 0,-13 -1,-20l0 -1c-5,1 -9,2 -14,4zm-23 5c0,1 0,1 0,2 0,6 1,10 2,15 1,4 3,8 5,12 2,-5 3,-10 4,-15 1,-6 2,-11 2,-17 -4,1 -8,2 -13,3zm-21 3c1,6 2,11 4,16 0,2 1,5 2,7 1,-3 2,-6 3,-10 1,-4 2,-9 3,-14 0,0 0,0 0,-1 -4,1 -8,1 -12,2zm-19 2c0,6 1,11 2,15 1,2 2,4 3,6 2,-3 3,-6 3,-10 1,-4 2,-8 2,-12 -4,0 -7,1 -10,1zm-24 1c1,7 3,12 5,17 1,3 2,5 4,7 3,-7 4,-16 5,-24 -5,0 -9,0 -14,0zm-24 0c0,4 1,8 2,12 1,3 2,6 3,9 2,-3 3,-6 4,-9 2,-4 3,-8 3,-12 -4,0 -8,0 -12,0zm-22 -2c0,5 0,10 1,15 0,3 1,6 2,9 1,-3 3,-6 4,-9 2,-5 3,-9 5,-14 -4,0 -8,-1 -12,-1zm-21 -3c-1,6 -1,11 0,16 0,3 1,6 1,10 3,-4 5,-7 6,-11 2,-4 4,-8 5,-13 -4,-1 -8,-1 -12,-2zm-24 -5c-1,7 -2,13 -1,19 0,6 0,11 2,16 2,-3 4,-7 6,-11 3,-6 5,-13 7,-21 -5,0 -10,-1 -14,-3zm-22 -5c-2,8 -3,16 -3,24 -1,7 0,13 0,19 7,-11 11,-24 15,-39 0,0 0,0 0,-1 -4,-1 -8,-2 -12,-3zm-20 -7l-1 1c-4,12 -6,23 -8,33 -2,7 -3,14 -3,20 3,-4 7,-9 10,-15 4,-10 9,-21 13,-35 -4,-1 -8,-3 -11,-4zm307 -23c12,26 25,51 39,72 13,20 28,36 45,49 -1,-8 -2,-16 -4,-24 -3,-11 -8,-21 -14,-32l0 0c-6,-10 -12,-21 -18,-32 -9,-15 -17,-30 -27,-45 -7,4 -14,8 -21,12zm21 60c-10,-18 -20,-36 -29,-56 -4,2 -8,4 -12,6 5,16 12,31 19,45 7,13 15,25 23,37 1,-3 1,-6 1,-10 0,-7 -1,-14 -2,-22zm-350 -45c-3,16 -8,30 -14,43 -1,6 -1,12 -1,17 0,2 0,4 0,6 5,-7 9,-15 13,-24 5,-11 10,-23 15,-35l0 -2c-4,-2 -8,-3 -13,-5zm-52 49c-3,5 -5,9 -8,13 -16,24 -33,43 -55,56l-7 4 0 -8c0,-9 1,-18 3,-27 -7,10 -15,19 -23,28 -21,23 -47,39 -74,55 -19,11 -35,22 -53,35 10,-21 15,-37 22,-60 9,-29 17,-59 34,-85 7,-9 14,-18 21,-27 -7,4 -15,7 -23,9l-8 2 2 -8c6,-20 17,-37 30,-54 0,0 0,0 -1,0 -7,2 -14,3 -21,4l-10 1 6 -8c7,-10 15,-20 23,-29 -4,1 -9,2 -13,2l-10 1 5 -8c8,-11 17,-22 26,-32 -6,2 -13,4 -20,5l-9 1 4 -8c5,-9 11,-17 18,-24 -6,2 -13,3 -20,3l-7 0 3 -6c4,-8 9,-15 15,-21 -4,1 -9,1 -13,1l-7 0 3 -7c4,-7 9,-14 15,-19 -6,1 -12,1 -19,0l-6 0 2 -6c3,-7 7,-13 13,-19 0,0 0,0 1,-1 -6,1 -11,1 -16,0l-7 -1 3 -6c3,-5 7,-10 11,-14 -5,-1 -10,-2 -15,-5l-5 -2 3 -4c3,-5 7,-9 11,-13 -6,-1 -11,-3 -17,-5l-6 -3 4 -5c3,-3 6,-6 10,-8 -6,-1 -11,-2 -16,-5l-6 -2 5 -5c3,-4 7,-7 12,-10 -6,-1 -11,-2 -17,-3l-8 -3 6 -5c6,-5 11,-9 18,-12l0 -1c-1,0 -1,0 -2,0 -8,-1 -16,-3 -23,-6l-9 -3 8 -5c6,-4 12,-7 18,-10 -1,0 -1,0 -2,0 -10,-2 -19,-4 -29,-8l-8 -4 8 -5c7,-3 14,-6 21,-8 -12,-2 -24,-5 -35,-10l-8 -3 7 -5c4,-2 8,-5 13,-7 -10,-2 -21,-5 -31,-10l-10 -5 11 -4c6,-2 13,-4 20,-6 -12,-2 -26,-5 -40,-12l-8 -3 7 -5c3,-2 8,-4 13,-6 -21,-6 -40,-15 -56,-28l-6 -5 8 -2c8,-4 17,-6 26,-7 -12,-3 -23,-7 -35,-11 -28,-12 -52,-31 -76,-50 -17,-14 -32,-25 -50,-37 21,1 40,0 62,-1 30,-3 61,-5 91,2 12,3 22,6 33,10 -6,-6 -11,-12 -16,-19l-5 -6 8 -1c24,-2 49,4 73,13l-1 -1c-4,-6 -8,-11 -11,-18l-4 -8 9 2c15,3 29,8 43,14l-1 -1c-4,-6 -8,-13 -11,-20l-4 -9 10 3c15,5 29,12 43,20 -6,-8 -12,-17 -16,-26l-3 -9 9 2c9,3 18,7 27,12 -4,-5 -7,-10 -9,-16l-3 -8 8 2c9,2 17,5 25,9 -2,-5 -5,-10 -6,-16l-2 -8 7 2c6,2 12,4 17,7 -1,-4 -3,-8 -4,-13l-2 -7 7 2c6,1 12,3 17,6 -2,-4 -4,-9 -5,-14l-2 -8 7 2c8,2 14,5 19,9 -1,-6 -2,-12 -2,-19l-1 -10 8 6c2,2 5,4 7,6 -1,-5 -1,-10 0,-16l1 -4 5 1c4,1 8,3 11,6 -1,-3 -1,-6 -1,-10l0 -6 6 2c5,1 9,4 13,7 -2,-5 -2,-10 -2,-16l0 -7 6 3c4,2 7,4 9,6 -1,-5 -1,-11 0,-17l1 -6 6 3c5,3 9,6 13,10 -1,-7 -2,-14 -2,-21l0 -9 7 5c5,4 10,8 14,13 -2,-9 -3,-18 -3,-28l1 -7 6 4c8,4 15,10 20,17l0 0c-2,-14 -3,-28 -2,-43l0 -8 7 5c7,5 12,11 17,17 0,-6 0,-13 0,-20 1,-12 2,-25 6,-37l2 -7 6 5c6,6 11,14 15,22 -1,-26 1,-52 10,-75l3 -8 5 7c5,7 9,14 13,21 -1,-11 -1,-23 0,-34 2,-31 14,-60 25,-88 7,-18 13,-36 20,-54 7,18 13,36 20,54 11,28 22,57 25,88 1,12 1,24 0,36 4,-8 9,-16 14,-23l5 -7 3 8c8,21 11,43 10,66 3,-5 7,-10 10,-13l7 -6 1 8c2,13 3,26 3,39 0,5 0,9 0,14 4,-9 10,-16 17,-22l8 -7 0 10c0,12 -1,23 -2,35 3,-5 7,-10 12,-15l7 -7 1 10c1,12 0,24 -1,36 -1,2 -1,4 -2,7 6,-7 12,-14 18,-21l8 -7 0 10c0,7 0,14 -1,21 3,-4 7,-7 11,-10l8 -6 -1 10c0,8 -1,17 -2,25 5,-5 10,-10 16,-13l6 -3 1 7c0,6 -1,13 -2,18 3,-2 7,-5 11,-7l7 -3 0 7c0,6 0,11 -1,17 3,-3 7,-6 11,-8l6 -3 1 7c1,7 0,15 -2,22 0,0 1,-1 2,-1 5,-4 10,-7 15,-9l7 -2 -1 7c0,6 -2,12 -5,19 1,-1 1,-1 2,-1 5,-4 11,-7 18,-9l7 -3 -1 7c-1,5 -2,10 -4,14 5,-3 9,-5 15,-6l7 -1 -2 7c-1,4 -2,8 -4,12 6,-2 12,-5 18,-6l6 -1 -1 7c-1,5 -2,10 -5,15 7,-4 15,-8 22,-11l8 -3 -2 9c-1,7 -4,13 -7,19 10,-6 20,-10 29,-13l8 -1 -2 7c-3,8 -7,16 -13,23 12,-6 25,-11 37,-15l10 -3 -4 9c-4,7 -8,14 -12,20 3,-1 5,-3 8,-4 11,-5 22,-8 33,-11l8 -1 -2 7c-2,7 -6,13 -10,19 23,-8 45,-12 68,-11l8 1 -5 7c-5,6 -10,13 -16,18 10,-4 21,-7 32,-10 31,-7 61,-4 92,-2 19,2 38,2 57,3 -14,12 -30,23 -45,35 -24,19 -48,38 -77,50 -11,5 -23,8 -34,12 9,1 17,3 26,6l8 3 -7 5c-19,15 -42,24 -67,31 2,0 4,1 7,2l0 0c8,2 15,4 20,6l10 5 -10 4c-15,6 -32,10 -49,12 11,2 21,5 29,10l9 6 -10 2c-15,5 -27,7 -38,9 7,2 15,6 21,11l8 5 -9 3c-11,2 -22,4 -33,5 7,3 14,6 20,11l8 5 -10 3c-8,2 -17,3 -25,4 6,3 12,7 17,13l4 6 -6 1c-6,2 -12,3 -19,3 5,3 9,6 10,10l2 5 -4 1c-5,2 -10,3 -16,4 6,3 10,7 14,12l3 5 -6 2c-6,2 -12,3 -19,3 5,4 9,7 11,11l3 5 -5 2c-6,2 -12,3 -18,4l0 0c7,4 12,9 16,15l3 5 -6 2c-7,1 -14,2 -21,2 5,4 9,9 12,14l3 6 -6 1c-4,0 -9,1 -13,0 4,3 7,6 9,10l4 5 -6 2c-6,2 -13,2 -19,1l0 1c6,5 11,11 15,18l3 6 -7 0c-5,1 -10,1 -15,1 6,4 13,10 17,16l6 7 -9 0c-7,0 -13,-1 -20,-2 7,6 14,13 19,21l5 8 -9 -1c-8,0 -15,-1 -23,-3 10,9 19,19 26,30l6 8 -11 -2c-8,-1 -15,-3 -23,-5 3,3 6,6 8,10 10,12 18,25 26,37 -15,-3 -29,-7 -44,-14 18,22 36,48 50,73 -13,-3 -21,-7 -32,-13 8,10 16,20 23,30 17,26 26,56 35,85 6,22 12,40 21,60 -18,-14 -33,-24 -53,-35 -26,-16 -53,-32 -74,-55 -8,-9 -16,-18 -23,-28 2,9 4,18 4,27l0 8 -7 -4c-22,-13 -39,-32 -55,-55 0,1 0,3 0,4 0,8 -1,15 -3,22l-2 9 -6 -7c-11,-15 -21,-30 -30,-47 0,0 -1,-1 -1,-2 2,16 2,32 -1,48 -11,-11 -19,-24 -25,-39 0,9 -1,17 -3,24l-2 10 -6 -8c-7,-10 -13,-20 -17,-31 -2,7 -3,14 -6,21l-3 8 -5 -7c-6,-7 -10,-16 -13,-25 -1,7 -3,14 -6,21l-4 7 -4 -6c-4,-5 -7,-10 -10,-16 -1,5 -3,10 -6,14l-4 7 -4 -7c-2,-4 -4,-8 -6,-13 -1,4 -3,8 -5,12l-3 6 -4 -6c-3,-3 -6,-7 -8,-11 -1,5 -3,10 -7,15l-3 5 -4 -5c-3,-4 -6,-9 -8,-16 -1,-2 -2,-4 -3,-6 0,0 0,1 0,1 -2,6 -6,12 -10,17l-4 3 -3 -4c-3,-4 -6,-9 -8,-15l0 0c-3,7 -6,13 -10,19l-4 7 -4 -8c-2,-5 -3,-10 -5,-16 -2,6 -6,11 -10,15l-5 6 -3 -7c-1,-5 -3,-10 -3,-15l-1 1c-3,8 -8,15 -14,19l-6 4 -2 -6c-1,-6 -2,-11 -3,-17 -3,9 -8,17 -15,25l-6 6 -1 -9c-2,-7 -2,-15 -3,-23 0,1 -1,2 -1,3 -6,12 -12,21 -20,27l-7 5 0 -9c0,-5 0,-11 0,-17 -7,13 -13,22 -23,33 -1,-9 -2,-17 -2,-26 -6,10 -14,19 -23,27l-7 7 0 -10c0,-12 0,-25 2,-38zm32 -59c-5,9 -9,17 -13,25 -4,11 -7,22 -9,33 -2,9 -3,19 -3,28 8,-10 15,-20 21,-32 7,-14 13,-33 16,-48 -4,-2 -8,-4 -12,-6zm-75 60c-5,11 -10,21 -13,32 -2,8 -4,16 -5,24 18,-13 32,-29 45,-49 14,-21 27,-45 39,-71 -7,-4 -14,-8 -21,-12 -9,14 -18,29 -26,44 -7,11 -13,22 -19,32l0 0zm5 -104c-12,12 -24,24 -37,35 -28,26 -57,53 -78,84 -16,25 -25,54 -33,83 -3,10 -6,21 -10,31 9,-6 19,-12 28,-17 26,-15 52,-31 72,-53 25,-28 44,-61 64,-95 8,-15 17,-30 26,-45 -11,-7 -21,-15 -32,-23z"/>
    </g>
    <path class="fil0" d="M5573 2712l2 -4 2 -5 4 -5 4 -4 5 -4 5 -4 6 -4 6 -3 7 -3 7 -3 8 -2 7 -2 8 -1 7 -1 8 -1 7 0 7 0 7 1 6 1 6 2 5 2 4 2 4 3 3 3 2 4 2 4 0 6 0 59 -3 -1 -4 0 -7 1 -8 1 -8 1c-4,1 -8,2 -12,3 -5,1 -9,2 -13,3 -4,2 -7,3 -11,5l-8 3c-3,1 -6,3 -9,4 -6,3 -11,6 -16,11l-33 -43 -3 -6 -3 -6 -1 -6 0 -5 0 -6zm-103 121l0 -6 0 -5 0 -6 2 -6 2 -7 3 -6 3 -7 4 -6 4 -6 4 -6 5 -6 6 -6 5 -5 6 -5 6 -5 5 -4 6 -3 6 -3 6 -2 5 -1 5 -1 5 0 4 1 4 2 4 3 3 4 35 47 -3 2 -3 2 -2 3 -6 5 -5 6 -6 6c-2,3 -5,7 -7,10 -3,3 -5,7 -8,10 -2,4 -4,7 -6,10 -2,4 -4,7 -6,10 -1,3 -3,6 -4,9l-2 5c-1,2 -2,5 -3,7l-52 -17 -7 -2 -6 -4 -4 -4 -3 -4 -3 -4 -2 -5zm-6 165l-5 -3 -3 -4 -4 -4 -3 -5 -2 -6 -2 -6 -2 -7 -1 -7 -1 -8 0 -7 0 -8 1 -8 1 -7 1 -8 2 -7 2 -7 2 -7 3 -6 3 -6 3 -5 4 -4 4 -3 4 -3 4 -2 4 -1 5 0 5 2 56 18 -1 3 -2 3 -1 4 -1 7 -2 8 -1 8c0,5 0,9 -1,13l0 9 0 8c1,4 1,8 1,12l1 7 1 7 2 6 0 3 1 2 1 2 1 1 -51 18 -7 2 -7 1 -5 -1 -6 -1 -4 -3zm87 135l-5 0 -5 0 -6 -2 -5 -3 -5 -3 -6 -4 -5 -4 -5 -6 -5 -5 -5 -6 -4 -6 -4 -7 -4 -7 -3 -7 -3 -7 -3 -6 -2 -7 -1 -7 -1 -6 0 -6 0 -6 1 -5 2 -4 2 -4 3 -3 4 -3 4 -2 57 -18 0 3 1 3 3 7 4 8 3 7 5 7c2,4 4,7 7,11 2,3 4,7 7,10l5 6c2,3 5,6 8,9l4 4 5 4 2 2 3 1 2 2 1 0 -31 45 -5 5 -5 5 -5 3 -5 1 -5 1zm151 58l-5 3 -4 3 -6 1 -6 2 -6 0 -7 0 -7 -1 -7 -1 -7 -1 -7 -2 -8 -3 -7 -3 -7 -3 -6 -4 -7 -4 -6 -4 -5 -4 -5 -5 -5 -4 -3 -5 -3 -5 -2 -4 -2 -5 0 -4 0 -5 2 -4 2 -4 35 -48 2 2 3 2 3 2 7 4 7 4 8 3 8 4c4,1 7,3 12,4 3,1 7,2 11,4l8 1c4,1 7,2 11,2 6,1 12,2 18,1l2 54 -1 7 -2 6 -2 6 -3 4 -3 4zm155 -42l-1 5 -3 5 -3 5 -4 4 -5 4 -6 4 -6 4 -6 3 -7 3 -7 3 -7 2 -8 2 -7 1 -8 1 -7 1 -8 0 -7 0 -6 -1 -7 -1 -5 -2 -5 -2 -5 -2 -4 -3 -3 -4 -2 -3 -1 -5 -1 -5 0 -59 4 0 3 0 8 0 7 -1 9 -1c4,-1 8,-2 12,-3 4,-1 8,-2 12,-4 4,-1 8,-2 12,-4 3,-1 7,-3 10,-4l7 -3c5,-3 11,-6 15,-11l33 43 4 6 2 6 2 6 0 5 -1 5zm101 -125l2 5 1 6 0 5 -1 6 -1 6 -2 7 -3 6 -3 6 -4 7 -4 6 -5 6 -5 6 -5 6 -6 5 -5 5 -6 5 -6 3 -6 4 -6 3 -5 2 -6 1 -5 1 -4 -1 -5 -1 -4 -1 -3 -3 -4 -4 -34 -48 2 -1 3 -2 6 -5 6 -6 5 -6c3,-3 6,-6 9,-9 2,-3 5,-7 8,-10 2,-3 4,-7 7,-10 2,-4 4,-7 6,-10l3 -6c3,-6 5,-12 6,-18l52 15 7 3 5 4 5 3 3 5 2 4zm9 -161l4 4 4 3 3 5 3 5 3 6 2 6 1 7 1 7 1 8 0 7 0 8 0 8 -1 7 -2 8 -1 7 -3 7 -2 7 -3 6 -3 5 -3 5 -4 5 -3 3 -4 3 -4 1 -5 1 -4 0 -5 -1 -56 -18 1 -3 1 -3 1 -4 2 -7 1 -8 1 -9c0,-4 1,-8 1,-12 0,-5 0,-9 0,-13 0,-4 0,-8 0,-12l-1 -8 -1 -7c-1,-6 -3,-12 -6,-18l52 -18 7 -1 6 -1 6 1 5 1 5 2zm-88 -135l5 0 6 1 5 2 5 3 6 3 5 4 6 4 5 5 5 6 4 6 5 6 4 7 3 7 4 6 3 7 2 7 2 7 1 7 1 6 1 6 -1 5 -1 5 -2 5 -2 4 -3 3 -3 3 -5 2 -56 18 -1 -3 -1 -4 -3 -7 -3 -7 -4 -7 -4 -7c-2,-4 -5,-8 -7,-11 -3,-3 -5,-7 -8,-10 -2,-3 -5,-6 -7,-9l-5 -6 -5 -5c-4,-3 -8,-6 -13,-8l31 -45 5 -6 5 -4 5 -3 5 -2 5 -1zm-150 -57l4 -3 5 -3 5 -2 6 -1 6 0 7 0 7 0 7 1 7 2 8 2 7 3 7 3 7 3 7 4 6 3 6 5 6 4 5 4 4 5 4 5 3 4 2 5 1 5 1 4 -1 4 -1 5 -3 4 -35 48 -2 -2 -3 -2 -3 -2 -7 -4 -7 -4 -7 -4c-4,-1 -8,-3 -12,-4 -4,-2 -8,-3 -12,-4 -4,-2 -8,-3 -12,-4l-7 -1c-4,-1 -7,-2 -11,-2l-6 -1 -2 0 -3 1 -3 0 -1 0 -1 -54 0 -7 2 -7 2 -5 3 -4 4 -4zm-14 97c90,0 164,73 164,163 0,90 -74,163 -164,163 -90,0 -163,-73 -163,-163 0,-90 73,-163 163,-163zm0 -127c160,0 290,130 290,290 0,159 -130,289 -290,289 -159,0 -289,-130 -289,-289 0,-160 130,-290 289,-290z"/>
    <path class="fil0" d="M5510 2793l16 -25 4 -6 5 4c4,3 7,6 10,8 7,5 13,10 19,15l0 0 0 1 1 0c3,3 4,10 3,17 -1,6 -3,13 -7,17l0 0c0,0 0,0 0,0 -5,5 -10,9 -16,12 -7,4 -15,5 -23,2l4 -11c5,1 9,0 13,-2 5,-2 9,-6 13,-9l0 0 0 0c2,-3 4,-7 4,-11 0,-3 0,-6 0,-7 -6,-5 -12,-10 -18,-14 -2,-2 -3,-3 -5,-4l-13 20 -10 -7z"/>
    <g>
     <path class="fil0" d="M5511 2968c-12,1 -24,3 -36,1l-3 0 -2 -3c-3,-8 -5,-15 -5,-23 -1,-8 -1,-16 1,-25 1,-7 4,-14 9,-18 5,-5 11,-8 17,-8 6,0 13,4 18,8 5,6 9,12 10,18 0,10 1,19 1,29 0,5 0,10 1,15l0 5 -6 1c-8,1 -4,0 -5,0l0 0zm-31 -10c10,0 20,-1 29,-2 0,-2 0,-5 0,-8 0,-10 -1,-19 -2,-29 0,-3 -2,-7 -5,-10 -3,-3 -7,-5 -10,-5 -3,0 -6,2 -8,4 -3,3 -5,7 -6,12 -2,8 -2,15 -1,22 0,5 1,10 3,16z"/>
    </g>
    <g>
     <path class="fil0" d="M5615 2717c-1,3 -2,7 -2,10 8,-5 16,-8 25,-12 9,-3 19,-6 29,-8 -2,-3 -5,-5 -8,-6 -6,-1 -13,-1 -20,1 -2,1 -4,1 -6,2 -7,3 -14,7 -18,13l0 0zm0 42c-1,-2 -3,-4 -4,-5 -3,-5 -7,-10 -9,-15 -3,-11 -2,-20 3,-28 5,-8 14,-15 24,-18 2,-1 5,-2 7,-2 9,-3 19,-3 26,-1 9,2 15,8 18,17 1,1 1,2 1,3 2,6 2,12 2,18 1,2 1,5 1,7l-12 1c0,-2 0,-5 -1,-7 0,-4 0,-7 -1,-10 -9,2 -19,4 -28,8 -9,3 -18,7 -26,12 1,3 3,5 5,7 1,2 2,4 4,6l-10 7z"/>
    </g>
    <path class="fil0" d="M5826 2711c1,8 1,16 -1,23 -2,8 -5,15 -10,21l-10 -6c3,-5 5,-9 7,-13 -8,-5 -17,-9 -25,-11 -9,-2 -17,-4 -26,-4 -1,4 -1,8 -1,13l-12 1c0,-8 1,-16 3,-23 3,-8 7,-15 13,-21l9 7c-3,4 -5,7 -7,11 8,1 16,2 24,4 8,3 16,6 24,10 0,-3 0,-7 0,-10l12 -2z"/>
    <path class="fil0" d="M5851 2789c2,-7 6,-14 11,-19 5,-6 12,-10 19,-11 7,-1 13,2 18,5 5,5 9,11 11,17 0,3 0,6 -1,9 2,0 5,1 7,2 1,0 1,0 1,0 6,3 9,8 11,14 1,5 1,11 -1,16 -1,1 -1,1 -1,1 -4,7 -10,12 -16,15 -8,3 -16,5 -23,4l1 -12c5,0 11,-1 17,-3 4,-2 8,-5 10,-9 0,-1 1,-1 1,-1 1,-2 1,-5 0,-8 0,-2 -2,-5 -5,-6 0,0 0,0 0,0 -1,-1 -3,-1 -4,-1 -3,-1 -6,-1 -8,0l-10 1 4 -10c1,-1 1,-3 2,-4 2,-2 3,-5 3,-6 -1,-3 -3,-6 -7,-9 -2,-2 -5,-3 -8,-3 -4,1 -9,3 -12,7 -4,4 -7,9 -8,14l-12 -3z"/>
    <g>
     <path class="fil0" d="M5943 2906c-2,-1 -3,-2 -5,-2 1,9 1,18 1,27 -1,9 -2,18 -3,28 3,0 6,-1 8,-2 4,-3 7,-6 9,-10 2,-5 3,-11 4,-17 0,-5 -2,-9 -4,-14 -3,-4 -6,-8 -10,-10l0 0zm-32 -12l2 0c10,-3 25,-5 36,1 6,4 11,9 14,15 4,6 6,13 6,20 -1,8 -2,16 -5,22 -3,6 -8,11 -14,15 -10,6 -24,3 -35,0 -1,0 -2,0 -3,0l2 -12c0,0 2,0 4,1 2,0 4,1 6,1 1,-9 2,-18 3,-26 0,-9 0,-18 -1,-27 -4,0 -8,1 -11,1l-1 1 -3 -12z"/>
    </g>
    <g>
     <path class="fil0" d="M5901 3043c-5,-2 -9,-5 -14,-8 -1,2 -3,4 -4,6 -4,6 -8,12 -11,18 -6,11 -8,21 2,27 16,8 32,-19 41,-36 -5,-2 -10,-5 -14,-7l0 0zm-13 -21c6,4 13,7 19,10 6,4 12,7 19,11l5 3 -3 5 -2 5c-12,19 -31,54 -58,40 -19,-10 -16,-26 -7,-42 3,-7 8,-14 12,-20 2,-4 5,-7 7,-10l2 -5 6 3z"/>
    </g>
    <g>
     <path class="fil0" d="M5762 3150c1,1 1,2 2,4 5,7 14,10 33,4 6,-2 11,-4 14,-7 3,-3 5,-7 6,-11 1,-2 0,-5 0,-8 -10,5 -19,9 -29,12 -9,3 -17,5 -26,6l0 0zm-3 -26c0,4 0,9 0,14 9,-1 17,-3 26,-6 9,-3 18,-6 28,-12 -2,-3 -5,-7 -7,-9l9 -8c5,5 10,13 12,21 2,6 3,12 2,18 -1,7 -4,13 -10,18 -5,4 -11,7 -19,10 -25,8 -38,2 -46,-10 -7,-10 -7,-25 -7,-37l12 1z"/>
    </g>
    <path class="fil0" d="M5623 3148c1,1 2,1 3,2 6,6 13,10 19,11 7,0 14,-2 20,-8 0,0 1,-1 2,-1 0,-1 1,-2 1,-2 2,-3 2,-6 1,-9 0,-4 -3,-8 -7,-12 -2,-2 -4,-4 -7,-6 -9,-6 -16,-7 -22,-6 -4,1 -9,4 -13,9 4,3 7,5 11,7 6,2 12,4 18,5l-2 12c-7,-1 -14,-3 -21,-7 -6,-3 -12,-6 -19,-11l-5 -4 4 -5c8,-9 16,-16 25,-18 9,-2 19,0 30,8 4,2 7,4 10,7 5,6 9,12 10,18 2,7 1,13 -3,18 -1,1 -2,3 -3,4 -1,1 -1,2 -2,2 -9,8 -19,11 -29,11 -9,-1 -19,-6 -27,-14 -1,-1 -2,-2 -3,-3l9 -8z"/>
    <g>
     <path class="fil0" d="M5519 3044c-2,3 -4,6 -5,8l0 0c-2,5 -2,11 1,17 0,2 2,4 3,6 5,7 9,11 14,14 4,3 7,4 11,4 3,-1 6,-2 9,-3 -7,-7 -14,-14 -19,-22 -6,-8 -10,-15 -14,-24l0 0zm23 -15c-5,2 -10,5 -14,7 4,9 9,17 14,25 6,7 12,14 19,21 3,-3 6,-7 8,-11l10 7c-5,9 -12,16 -18,20 -6,4 -12,6 -18,7 -6,0 -12,-2 -18,-5 -5,-4 -11,-10 -17,-18 -2,-3 -3,-6 -5,-9 -3,-8 -3,-17 0,-25l0 0c3,-8 8,-15 17,-21 5,-3 11,-6 17,-9l5 11z"/>
    </g>
   </g>
  </g>
  <rect class="fil0" x="815" y="115" width="3319" height="6638"/>
  <g>
   <g>
    <g>
     <path class="fil1" d="M3645 4281c0,0 0,1 1,2 0,2 0,4 0,7 0,10 -2,21 -7,33 -5,11 -14,21 -27,29 0,0 -2,1 -5,2 -3,2 -8,4 -14,5 -7,2 -14,3 -21,3 -18,0 -37,-5 -56,-15l-20 -12c-1,-1 -3,-1 -5,-1 -2,0 -4,1 -6,2 -1,1 -2,3 -3,5l-1 5 -5 0 0 -73 8 0 6 28c1,10 6,18 16,25 0,0 3,2 10,6 17,9 32,14 46,14 19,0 33,-10 42,-28 1,-1 1,-2 2,-4 0,-1 1,-4 2,-7 0,-3 1,-7 1,-10 0,-11 -3,-21 -9,-31 -7,-11 -17,-20 -32,-29 -6,-3 -15,-9 -28,-17 -13,-7 -20,-12 -23,-14 -12,-9 -22,-18 -30,-28 -8,-10 -12,-22 -12,-35 0,-19 5,-35 17,-49 11,-14 29,-21 56,-21 1,0 4,1 9,1 6,1 12,2 20,4 9,2 17,5 26,9 2,0 4,1 6,1 3,0 6,-1 8,-3 2,-2 4,-4 4,-7l1 -5 5 0 0 62 -5 0 -2 -12c-1,-5 -3,-9 -6,-13 -3,-4 -7,-7 -12,-9 -5,-3 -11,-5 -20,-7 -8,-2 -16,-3 -24,-3 -13,0 -24,3 -32,10 -9,7 -13,19 -13,36 0,12 3,22 9,28 7,7 13,12 19,16 6,3 10,5 11,6 4,3 10,6 19,11 9,6 16,10 22,13 32,20 49,43 52,70l0 0zm-286 -43l-34 -87 -33 87 67 0zm102 110l0 5 -85 0 0 -5 8 -1c3,-1 6,-2 8,-5 2,-2 3,-5 3,-8 0,-2 0,-3 -1,-5l-29 -74 -79 0 -30 76c0,1 0,2 0,3 0,3 1,6 3,8 1,2 4,4 7,4l9 2 0 5 -75 0 0 -5 6 -1c7,-1 13,-3 18,-7 5,-4 8,-9 10,-15l96 -248 1 0 95 247c2,6 6,11 11,15 5,4 10,7 16,8l8 1zm-262 -215l-3 -17c-1,-3 -2,-5 -4,-7 -3,-2 -5,-3 -9,-4l-51 0c-2,0 -4,1 -5,2 -2,2 -3,4 -3,6l0 220c1,3 2,6 4,8 2,2 4,4 7,4l17 3 0 5 -28 0 -32 0 -27 0 0 -5 16 -3c4,0 6,-2 8,-4 2,-2 3,-5 3,-9l0 -219c0,-2 0,-4 -2,-6 -1,-1 -3,-2 -5,-2l-51 0c-4,1 -7,2 -9,4 -2,2 -3,4 -4,7l-3 17 -5 0 0 -28 0 -17c0,-2 1,-4 2,-5 1,-2 3,-2 5,-2l72 0 32 0 59 0 14 0c2,0 4,0 5,2 1,1 2,3 2,5l0 45 -5 0zm-231 -44c-3,0 -5,2 -7,4 -2,3 -3,5 -3,8l0 232c0,3 1,6 3,8 2,2 5,4 7,4l18 3 0 5 -28 0 -32 0 -28 0 0 -5 17 -3c3,0 5,-1 8,-4 2,-2 3,-5 3,-8l0 -231c0,-4 -1,-6 -3,-9 -3,-2 -5,-4 -8,-4l-17 -3 0 -5 28 0 32 0 28 0 0 5 -18 3zm-98 192c0,0 0,1 0,2 1,2 1,4 1,7 0,10 -3,21 -7,33 -5,11 -14,21 -28,29 0,0 -1,1 -4,2 -3,2 -8,4 -15,5 -6,2 -13,3 -21,3 -18,0 -37,-5 -56,-15l-19 -12c-2,-1 -3,-1 -5,-1 -3,0 -5,1 -6,2 -2,1 -3,3 -3,5l-1 5 -5 0 0 -73 8 0 5 28c2,10 7,18 16,25 0,0 4,2 11,6 17,9 32,14 46,14 19,0 33,-10 42,-28 0,-1 1,-2 1,-4 1,-1 2,-4 2,-7 1,-3 1,-7 1,-10 0,-11 -3,-21 -9,-31 -6,-11 -17,-20 -32,-29 -6,-3 -15,-9 -27,-17 -13,-7 -21,-12 -24,-14 -12,-9 -21,-18 -29,-28 -8,-10 -12,-22 -13,-35 0,-19 6,-35 17,-49 11,-14 30,-21 57,-21 1,0 4,1 9,1 5,1 12,2 20,4 8,2 17,5 26,9 1,0 3,1 5,1 3,0 6,-1 8,-3 3,-2 4,-4 5,-7l1 -5 5 0 0 62 -5 0 -3 -12c-1,-5 -3,-9 -6,-13 -3,-4 -7,-7 -11,-9 -5,-3 -12,-5 -20,-7 -8,-2 -16,-3 -24,-3 -14,0 -24,3 -33,10 -8,7 -12,19 -12,36 0,12 3,22 9,28 6,7 12,12 18,16 6,3 10,5 12,6 4,3 10,6 19,11 9,6 16,10 21,13 33,20 50,43 53,70zm-331 -55c11,0 22,-2 31,-8 10,-6 18,-13 23,-23 6,-9 9,-19 9,-31 0,-11 -3,-22 -9,-31 -6,-10 -13,-18 -23,-23 -10,-6 -20,-9 -32,-9l-15 0c-2,0 -3,1 -5,2 -1,1 -2,3 -2,5l0 118 23 0 0 0zm154 122l0 5 -27 0 -21 0c-5,0 -11,-1 -18,-3 -6,-2 -11,-5 -14,-9l-83 -103 -7 0c-2,0 -4,1 -5,2 -1,2 -2,3 -2,5l0 88c0,3 1,6 3,8 2,3 5,4 8,4l17 3 0 5 -87 0 0 -5 16 -3c3,0 6,-1 8,-4 2,-2 3,-5 3,-8l0 -232c0,-3 -1,-6 -3,-8 -2,-2 -5,-4 -8,-4l-16 -3 0 -5 27 0 69 0c14,0 28,3 40,10 12,7 22,17 29,29 7,12 10,25 10,40 0,18 -5,35 -17,49 -11,14 -26,23 -44,28l75 93c4,3 7,6 11,8 3,2 7,4 9,5 3,1 5,1 5,1l22 4zm-256 -6c0,4 -1,6 -3,8 -2,2 -5,3 -8,3l-112 0 -32 0 -27 0 0 -5 16 -3c3,0 6,-1 8,-4 2,-2 3,-5 3,-8l0 -231c0,-4 -1,-6 -3,-9 -2,-2 -5,-4 -8,-4l-16 -3 0 -5 27 0 32 0 99 0c3,0 5,1 7,3 2,2 3,4 3,6l0 14 0 27 -5 0 -3 -16c0,-3 -2,-6 -4,-8 -3,-2 -5,-3 -8,-3l-83 0c-1,0 -3,1 -4,2 -1,1 -2,3 -2,5l0 77c0,2 1,3 2,5 1,1 3,1 5,1l55 0c3,0 6,-1 8,-3 3,-2 4,-4 5,-7l3 -17 5 0 0 27 0 13 0 5 0 27 -5 0 -3 -17c-1,-3 -2,-5 -5,-7 -2,-2 -5,-3 -8,-3l-55 0c-2,0 -4,0 -5,1 -1,2 -2,3 -2,5l0 100c0,3 1,6 4,8 2,3 5,4 8,4l91 0c3,0 5,-1 8,-3 2,-2 4,-5 4,-8l3 -16 5 0 0 39 0 0zm-186 -261l0 5 -21 4c-5,1 -8,4 -9,8l-100 259 -15 0 -99 -259c-1,-2 -3,-4 -4,-5 -2,-2 -4,-3 -6,-3l-20 -4 0 -5 84 0 0 5 -8 1c-3,1 -5,2 -7,5 -3,2 -4,5 -4,8 0,2 1,3 2,5l73 192 74 -194c0,0 1,-2 1,-3 0,-3 -1,-6 -3,-8 -2,-2 -4,-4 -7,-5l-9 -1 0 -5 78 0zm-297 8c-4,0 -6,2 -8,4 -2,3 -3,5 -3,8l0 232c0,3 1,6 3,8 2,2 5,4 8,4l17 3 0 5 -28 0 -32 0 -28 0 0 -5 17 -3c3,0 6,-1 8,-4 2,-2 3,-5 3,-8l0 -231c0,-4 -1,-6 -3,-9 -2,-2 -5,-4 -8,-4l-17 -3 0 -5 28 0 32 0 28 0 0 5 -17 3zm-98 -3l-17 3c-3,0 -6,2 -8,4 -2,3 -3,5 -3,8l0 196 0 56 -6 0 -189 -216 0 196c0,3 1,6 3,8 2,2 5,4 8,4l16 3 0 5 -27 0 -28 0 -27 0 0 -5 17 -3c3,0 6,-2 7,-4 2,-3 3,-6 3,-9l0 -231c0,-3 -1,-5 -3,-8 -2,-2 -4,-4 -7,-4l-17 -3 0 -5 27 0 6 0 16 0c4,0 7,1 10,4l164 188 0 -172c0,-3 -2,-5 -4,-8 -2,-2 -4,-4 -7,-4l-17 -3 0 -5 28 0 27 0 28 0 0 5 0 0zm-294 0l-17 3c-3,0 -5,2 -8,4 -2,3 -3,6 -3,9l0 46 0 113c0,18 -4,34 -13,50 -9,15 -21,27 -37,36 -15,9 -31,13 -50,13l-17 0c-17,0 -33,-4 -46,-13 -13,-9 -23,-21 -30,-36 -7,-15 -11,-32 -11,-50l0 -113 0 -46 0 0c0,-3 -1,-6 -3,-9 -2,-2 -4,-3 -7,-4l-17 -3 0 -5 87 0 0 5 -17 3c-3,0 -6,2 -8,4 -2,3 -3,6 -3,9l0 46 0 130c0,12 3,24 9,34 6,10 14,18 24,24 11,6 22,9 34,9l11 0c12,0 23,-3 34,-9 10,-6 18,-14 24,-24 6,-10 9,-22 9,-34l0 -130 0 -46c0,-4 -1,-6 -3,-9 -2,-2 -5,-4 -8,-4l-17 -3 0 -5 83 0 0 5 0 0z"/>
    </g>
    <path class="fil1" d="M3708 4624l-34 -86 -33 86 67 0zm101 110l0 5 -85 0 0 -5 9 -2c3,0 5,-2 7,-4 2,-3 3,-6 3,-9 0,-1 0,-3 -1,-4l-28 -74 -79 0 -29 75c-1,1 -1,2 -1,3 0,3 1,6 3,8 2,3 4,4 7,5l9 2 0 5 -74 0 0 -5 6 -2c6,-1 12,-3 17,-7 5,-4 9,-9 11,-15l94 -246 2 0 94 246c2,5 6,10 11,14 5,4 10,7 16,8l8 2zm-284 -142c0,-18 -4,-35 -13,-50 -9,-16 -22,-28 -37,-37 -15,-9 -32,-13 -50,-13l-55 0c-2,0 -4,1 -5,2 -1,1 -2,3 -2,4l0 210c0,2 1,4 2,5 2,1 3,2 5,2l55 0c18,0 35,-4 50,-13 15,-10 28,-22 37,-37 9,-15 13,-32 13,-50l0 -23zm-94 -124c23,0 44,6 63,17 19,11 35,27 46,46 12,20 18,41 18,64l0 17c0,23 -6,44 -18,63 -11,20 -27,35 -46,47 -19,11 -40,17 -63,17l-80 0 -18 0 -27 0 0 -5 16 -4c4,0 6,-1 8,-4 2,-2 3,-5 3,-8l0 -229c0,-4 -1,-6 -3,-9 -2,-2 -4,-3 -8,-4l-16 -3 0 -5 27 0 30 0 68 0 0 0zm-230 156l-33 -86 -33 86 66 0zm101 110l0 5 -84 0 0 -5 9 -2c2,0 5,-2 7,-4 2,-3 3,-6 3,-9 0,-1 0,-3 -1,-4l-28 -74 -80 0 -29 75c0,1 0,2 0,3 0,3 1,6 3,8 2,3 4,4 7,5l9 2 0 5 -74 0 0 -5 6 -2c6,-1 12,-3 17,-7 5,-4 8,-9 11,-15l94 -246 2 0 94 246c2,5 6,10 11,14 4,4 10,7 16,8l7 2zm-275 -258c-3,1 -6,2 -7,4 -2,3 -4,5 -4,8l0 230c0,3 2,6 4,8 1,3 4,4 7,4l17 4 0 5 -87 0 0 -5 17 -4c3,0 5,-1 7,-4 2,-2 4,-5 4,-8l0 -222 -90 193 -13 29 -11 0 -3 -7 -103 -222 0 229c0,4 1,6 3,8 2,3 5,4 7,4l17 4 0 5 -82 0 0 -5 17 -4c3,0 5,-1 7,-4 2,-2 3,-5 3,-8l0 -230c0,-3 -1,-5 -3,-8 -2,-2 -4,-3 -7,-4l-17 -3 0 -5 27 0 37 0c4,0 8,1 12,3 3,2 6,5 8,9l82 179 83 -179c2,-4 4,-7 8,-9 3,-2 7,-3 11,-3l38 0 28 0 0 5 -17 3zm-487 242c0,3 1,6 3,8 2,3 5,4 8,4l16 4 0 5 -27 0 -32 0 -27 0 0 -5 17 -4c2,0 5,-1 7,-4 2,-2 3,-5 3,-8l0 -123 -151 0 0 123c0,3 1,6 3,8 2,3 5,4 8,4l16 4 0 5 -27 0 -32 0 -27 0 0 -5 16 -4c3,0 6,-1 8,-4 2,-2 3,-5 3,-8l0 -230c0,-3 -1,-5 -3,-8 -2,-2 -5,-3 -8,-4l-16 -3 0 -5 27 0 32 0 27 0 0 5 -16 3c-3,1 -6,2 -8,4 -2,3 -3,5 -3,8l0 90 151 0 0 -90c0,-3 -1,-5 -3,-8 -2,-2 -5,-3 -7,-4l-17 -3 0 -5 27 0 32 0 27 0 0 5 -16 3c-3,0 -6,2 -8,4 -2,3 -3,5 -3,8l0 230zm-347 -94l-34 -86 -33 86 67 0zm101 110l0 5 -84 0 0 -5 8 -2c3,0 5,-2 7,-4 3,-3 4,-6 4,-9 0,-1 -1,-3 -2,-4l-28 -74 -79 0 -29 75c0,1 -1,2 -1,3 0,3 1,6 3,8 2,3 4,4 7,5l9 2 0 5 -74 0 0 -5 6 -2c7,-1 13,-3 17,-7 5,-4 9,-9 11,-15l95 -246 2 0 93 246c3,5 6,10 11,14 5,4 10,7 17,8l7 2zm-251 -261l-17 3c-3,1 -5,2 -7,4 -2,3 -4,5 -4,8l0 198c0,45 -10,78 -30,99 -21,21 -50,31 -87,31l0 -13c14,0 27,-4 40,-12 13,-7 24,-20 33,-37 9,-18 13,-40 13,-68l0 -197c0,-4 -1,-6 -3,-9 -2,-2 -5,-3 -8,-4l-16 -3 0 -5 27 0 31 0 28 0 0 5zm-139 119c0,-18 -4,-35 -13,-50 -9,-16 -22,-28 -37,-37 -15,-9 -32,-13 -50,-13l-55 0c-2,0 -4,1 -5,2 -1,1 -2,3 -2,4l0 210c0,2 1,4 2,5 2,1 3,2 5,2l55 0c18,0 35,-4 50,-13 15,-10 28,-22 37,-37 9,-15 13,-32 13,-50l0 -23zm-94 -124c23,0 44,6 63,17 20,11 35,27 46,46 12,20 18,41 18,64l0 17c0,23 -6,44 -18,63 -11,20 -26,35 -46,47 -19,11 -40,17 -63,17l-80 0 -18 0 -27 0 0 -5 17 -4c3,0 5,-1 7,-4 2,-2 3,-5 3,-8l0 -229c0,-4 -1,-6 -3,-9 -2,-2 -4,-3 -7,-4l-17 -3 0 -5 27 0 30 0 68 0 0 0zm-230 156l-33 -86 -33 86 66 0zm101 110l0 5 -84 0 0 -5 9 -2c2,0 5,-2 7,-4 2,-3 3,-6 3,-9 0,-1 0,-3 -1,-4l-28 -74 -80 0 -29 75c0,1 0,2 0,3 0,3 1,6 3,8 2,3 4,4 7,5l9 2 0 5 -74 0 0 -5 6 -2c6,-1 12,-3 17,-7 5,-4 8,-9 11,-15l94 -246 2 0 94 246c2,5 6,10 11,14 4,4 10,7 16,8l7 2zm-251 -126l-17 3c-3,1 -5,2 -7,4 -2,3 -3,6 -3,9l0 17 0 44 0 29c0,3 -2,5 -4,6 -13,9 -27,16 -45,19 -17,4 -33,7 -48,7 -16,1 -23,1 -23,1 -19,0 -37,-4 -54,-11 -18,-7 -34,-17 -47,-31 -14,-13 -24,-28 -31,-46 -7,-17 -11,-35 -11,-54 0,-19 4,-37 11,-55 8,-19 19,-35 33,-49 14,-14 30,-25 49,-32 18,-7 37,-11 57,-11 17,0 35,2 56,5 20,4 38,11 53,21 2,2 4,4 4,8l0 59 -9 0 -1 -7c-2,-12 -7,-23 -13,-32l-3 -3c-10,-11 -22,-20 -35,-26 -14,-7 -28,-10 -43,-10 -20,0 -40,6 -60,18 -20,12 -35,27 -48,47 -12,20 -18,42 -18,65 0,22 6,44 18,64 13,20 28,35 48,47 20,12 40,18 60,18 22,0 41,-7 60,-19l0 -1c0,0 1,-1 3,-3 6,-5 9,-12 9,-19l0 -66c0,-3 -2,-6 -4,-9 -2,-2 -5,-3 -8,-4l-17 -3 0 -5 88 0 0 5 0 0z"/>
    <g>
     <path class="fil1" d="M2669 2677c-4,-3 -8,-6 -13,-8 -1,1 -1,2 -2,3 -2,3 -4,6 -6,8l-9 -8c2,-2 3,-5 5,-7 12,-16 25,-35 50,-19 15,11 11,24 2,37 -3,5 -7,10 -11,15 -2,2 -3,4 -5,5l-9 -8c2,-2 3,-3 5,-5 1,-1 2,-3 3,-4 -3,-3 -6,-6 -10,-9l0 0zm-5 -18c5,3 9,5 13,8 3,3 6,6 9,9 6,-8 8,-15 1,-20 -9,-6 -17,-3 -23,3zm-61 -5l19 -33 -14 -7 6 -11 37 20 -5 10 -14 -7 -19 34 -10 -6zm-10 -55l-16 47 -11 -4 15 -47 12 4zm-66 24c1,1 2,3 4,4 2,1 4,2 6,2 3,1 6,0 8,-1 1,-1 2,-2 2,-3 0,-1 0,-1 1,-2 0,-1 -1,-3 -2,-3 -1,-1 -2,-2 -4,-3 -1,0 -1,0 -2,0l0 0 0 0 0 0c-6,0 -11,-3 -14,-6 -4,-4 -6,-9 -5,-14l0 0 0 0 0 0c0,-5 3,-9 8,-12 4,-2 9,-4 14,-3 5,0 9,2 12,5 2,3 4,6 6,8l-11 6c-1,-2 -2,-4 -3,-5 -2,-1 -3,-2 -5,-2 -3,0 -5,0 -7,1 -1,1 -2,2 -2,3l0 0 0 0 0 0c0,2 0,3 2,4 1,2 3,3 6,3l0 0c1,0 2,0 3,1 5,0 8,2 11,5 3,4 5,8 5,13 -1,1 -1,2 -1,3 -1,5 -4,9 -8,11 -5,3 -10,4 -15,4 -4,-1 -8,-2 -11,-5 -4,-2 -7,-5 -9,-9l11 -5zm-63 -34l0 13 1 0c5,0 10,0 14,0 1,0 1,0 1,0 2,0 5,-1 7,-3 1,-1 2,-2 2,-3 0,0 0,0 0,0l0 0c0,-1 0,-1 0,-1 -1,-3 -3,-5 -6,-6 -5,-1 -11,-1 -18,-1l-1 1zm29 45c-3,-6 -6,-10 -9,-14 -2,-2 -4,-4 -6,-6 -4,0 -9,0 -13,0l-1 0 0 16 -13 0 1 -47 0 -5 5 -1c2,0 4,0 7,-1 8,-1 16,0 22,1 8,3 13,8 15,16 0,0 0,1 0,1l0 0c0,1 0,1 0,1 0,6 -3,10 -7,14 -1,0 -2,1 -2,1 0,1 1,2 1,3 4,4 7,9 11,15l-11 6zm-68 -42c-2,0 -5,0 -7,1 -8,1 -19,3 -19,6 0,3 0,6 0,8l24 -5 3 12 -24 5c1,2 1,4 2,6l0 0 1 3c0,0 3,0 6,-1 6,0 13,-2 18,-4l4 12c-6,1 -13,4 -20,4 -9,2 -17,0 -19,-7l-1 -3 0 0c-4,-12 -7,-18 -6,-30 1,-14 16,-16 29,-18 2,0 5,-1 6,-1l3 12zm-95 14l28 30 2 -39 12 1 -8 57 -42 -41 8 -8zm-20 14l22 43 -11 5 -22 -42 11 -6zm-40 85l-30 -43 9 -6 45 10 -17 -27 10 -6 25 38 4 6 -9 6 -46 -12 19 27 -10 7zm-67 -1c1,2 3,3 4,5 4,4 9,9 14,12 8,7 16,12 22,5 4,-5 5,-10 2,-15 -3,-7 -10,-16 -23,-26l8 -10c14,12 23,22 26,31 5,10 3,19 -4,28 -12,14 -26,7 -39,-3 -5,-4 -10,-9 -14,-14 -2,-1 -3,-3 -4,-4l8 -9zm506 15c-1,2 -1,3 -1,4 0,2 1,4 2,5 1,0 1,1 1,1 3,2 5,3 8,4 1,0 2,0 3,-1l0 0 0 0 0 0c2,-2 2,-4 2,-6 -1,-3 -3,-6 -5,-8 -1,-1 -2,-2 -2,-2l0 0c-3,-5 -4,-9 -4,-13 0,-5 2,-9 6,-12 0,0 1,0 1,-1l0 0c5,-3 9,-4 14,-4 4,1 9,3 13,6 3,3 6,8 7,12 1,5 1,9 -1,14l-11 -6c1,-1 1,-3 0,-4 0,-3 -2,-5 -3,-7 -3,-2 -4,-3 -6,-3 -2,0 -4,1 -6,2l0 0c0,0 0,0 0,1 -1,0 -2,1 -2,3 0,1 0,3 2,5l0 0c0,0 0,1 1,1 3,3 6,8 7,13 2,5 2,11 -4,17l0 0c0,0 0,1 0,1l0 0c-4,4 -9,5 -15,4 -4,-1 -9,-4 -13,-7 0,-1 -1,-1 -1,-2 -3,-3 -6,-7 -6,-12 -1,-4 0,-8 3,-12l10 7z"/>
    </g>
    <path class="fil1" d="M2227 3108l18 21 4 5 -5 3c-2,2 -5,4 -7,7 -8,6 -15,13 -24,16 -5,2 -10,1 -15,0 -5,-2 -9,-6 -12,-10 -3,-4 -5,-9 -6,-14 -1,-6 0,-12 1,-16l11 4c0,2 -1,6 0,10 0,3 1,6 3,8 2,3 5,5 8,6 2,1 4,1 6,1 6,-3 13,-9 20,-15 1,0 2,-1 3,-2l-14 -16 9 -8z"/>
    <g>
     <path class="fil1" d="M2250 3171c-1,0 -1,1 -2,2 -4,3 -5,6 -6,10 0,4 2,8 5,12 0,0 0,0 0,0 2,3 6,4 10,4 5,1 9,-1 12,-3 0,0 0,0 0,0 4,-3 8,-8 9,-13 1,-3 0,-7 -3,-11 -1,-1 -1,-1 -2,-2 -3,-4 -7,-5 -11,-5 -4,1 -8,3 -12,6l0 0zm-10 -7c1,-1 2,-2 3,-3 5,-4 11,-7 18,-8 7,0 15,2 21,9 1,1 2,2 2,2 6,8 7,15 6,21 -2,9 -8,16 -13,20 -1,1 -1,1 -1,1 -5,4 -12,6 -19,5 -7,0 -15,-3 -19,-8 0,0 -1,-1 -1,-1 -4,-6 -7,-13 -7,-20 1,-6 4,-13 10,-18z"/>
    </g>
    <path class="fil1" d="M2328 3209c-1,-2 -2,-4 -5,-6 -1,-2 -3,-4 -5,-4 -3,-1 -7,0 -11,2 -4,2 -7,5 -9,9 -2,5 -3,10 -2,16 2,4 4,7 8,10 3,1 6,3 9,3 2,0 4,0 6,-1 2,-1 4,-5 6,-9 -3,-1 -8,-3 -12,-4 -1,-1 -3,-2 -5,-3l4 -11c2,1 4,1 6,2 7,3 14,6 18,9l3 3 -1 4c0,0 -1,1 -1,2 -3,7 -5,14 -12,17 -5,3 -9,4 -14,3 -5,-1 -9,-2 -13,-5 -7,-4 -11,-10 -13,-17 -2,-8 -1,-17 2,-24 3,-6 8,-12 15,-15 6,-3 13,-5 19,-3 4,1 8,4 11,7 3,4 6,8 8,11l-12 4z"/>
    <path class="fil1" d="M2376 3214c4,2 7,3 11,4 3,2 7,3 13,4l5 2 -1 5c-1,7 -2,13 -4,19 -2,6 -4,11 -7,17 -2,4 -7,7 -13,9 -5,1 -11,1 -16,0 -7,-3 -13,-7 -16,-11 -4,-4 -6,-9 -7,-14l12 -3c1,4 2,7 4,9 2,3 6,5 11,7 3,1 6,1 9,0 3,-1 5,-2 5,-3 3,-5 5,-10 6,-15 2,-3 2,-7 3,-12 -3,0 -6,-1 -8,-2 -4,-2 -8,-3 -11,-4l4 -12z"/>
    <g>
     <path class="fil1" d="M2441 3270c-6,0 -11,-1 -16,-1 -1,2 -1,4 -1,6 0,2 0,4 0,7l-12 0c0,-3 0,-6 0,-8 1,-11 4,-22 9,-31 5,-9 13,-15 23,-15 1,0 1,0 2,0 27,2 25,28 23,50 0,3 -1,6 -1,8l-12 -1c0,-3 1,-5 1,-8 0,-1 0,-3 0,-5 -5,-1 -11,-1 -16,-2l0 0zm-13 -13c4,0 9,1 14,1 5,1 11,1 16,2 0,-10 -3,-19 -13,-20 0,0 -1,0 -1,0 -5,0 -9,4 -13,9 -1,3 -2,5 -3,8z"/>
    </g>
    <polygon class="fil1" points="2497,3234 2498,3248 2523,3226 2531,3235 2512,3252 2535,3274 2527,3283 2503,3260 2499,3264 2500,3284 2488,3284 2485,3234 "/>
    <g>
     <path class="fil1" d="M2562 3238c0,3 0,5 1,8l26 -8c-2,-3 -3,-6 -5,-9 -3,-5 -7,-7 -11,-5 -8,2 -10,8 -11,14l0 0zm-6 34c-3,-12 -6,-24 -6,-34 1,-12 6,-21 19,-26 11,-3 19,1 25,11 6,8 10,20 13,35l-11 3c-1,-4 -2,-8 -4,-12l-27 9c1,3 2,7 3,11l-12 3z"/>
    </g>
    <g>
     <path class="fil1" d="M2624 3206l9 15c2,-1 3,-2 4,-3 3,-2 5,-4 8,-6 6,-8 9,-13 9,-16 0,-1 0,-2 -1,-2 0,-1 -1,-1 -2,-1 -2,-1 -5,-1 -7,0 -5,3 -11,7 -16,11 -1,1 -3,1 -4,2l0 0zm11 41l-24 -39 -3 -5 5 -4c3,-1 5,-3 8,-5 6,-4 11,-8 18,-11 4,-3 11,-3 16,-2 3,1 6,3 8,5 2,3 3,6 3,10 0,3 -1,7 -4,12 2,0 4,0 5,0 6,1 12,3 17,7l-6 10c-4,-2 -8,-4 -13,-5 -4,0 -8,0 -12,1 -3,3 -6,5 -9,7 -1,1 -3,2 -4,3l6 9 -11 7z"/>
    </g>
    <path class="fil1" d="M2711 3193c-5,-7 -9,-13 -14,-18 -4,-4 -7,-8 -11,-12l-10 10 -8 -9 30 -28 8 9 -11 10c4,4 7,8 11,12 5,5 10,12 15,19l-10 7z"/>
    <g>
     <path class="fil1" d="M2735 3110c-6,8 -1,16 5,23l17 -24c0,0 0,0 -1,-1 -7,-5 -15,-7 -21,2l0 0zm14 47c-2,-2 -4,-4 -6,-5 -15,-12 -33,-27 -18,-49 12,-17 25,-13 38,-5 4,3 8,6 12,9 3,3 6,5 9,7l-7 10c-3,-2 -6,-5 -10,-7l0 -1 -18 25 1 1c3,2 5,4 7,6l-8 9z"/>
    </g>
    <path class="fil1" d="M2756 2652c2,-4 4,-7 5,-11 1,-2 -2,-3 -1,-6 4,-8 8,-17 12,-24 10,-16 18,-29 27,-42 9,-14 19,-27 33,-43 16,-20 32,-39 54,-53 21,-15 48,-25 84,-27 27,-1 51,7 71,23 21,15 38,37 55,65 18,31 35,52 50,71 6,8 12,15 18,22 7,11 17,19 27,26 12,7 25,13 39,17l11 3 -7 10c-8,12 -14,24 -19,37 -3,12 -5,25 -5,38 1,9 1,18 1,28 0,24 1,51 6,87 5,32 6,60 0,85 -6,25 -19,46 -41,63 -29,22 -56,31 -82,33 -26,2 -50,-2 -75,-7 -21,-4 -38,-8 -53,-12 -15,-4 -30,-9 -47,-16 -11,-3 -21,-9 -32,-15 -3,-1 -7,-1 -8,-4 -2,-3 -7,-10 -13,-13l10 -4c7,2 5,-1 12,2 2,2 5,3 7,4 10,6 20,11 30,14 17,7 31,11 46,16 15,4 30,7 51,11 24,5 47,9 71,7 23,-2 47,-10 73,-30 18,-14 29,-31 34,-53 6,-22 5,-49 0,-79 -5,-36 -6,-64 -6,-88 0,-10 0,-19 -1,-29 0,-14 2,-29 6,-43 4,-11 9,-22 15,-32 -11,-4 -22,-9 -32,-16 -12,-8 -23,-17 -32,-29 -6,-8 -11,-15 -17,-22 -16,-20 -33,-41 -52,-73 -15,-26 -31,-47 -50,-61 -18,-13 -37,-20 -60,-19 -33,2 -57,11 -76,24 -19,13 -34,31 -50,50 -13,16 -23,29 -32,41 -9,13 -17,26 -26,41 -5,9 -10,20 -14,30 -2,4 -14,6 -15,8l-2 -5zm-213 675c-1,5 5,3 4,7 -3,20 -5,37 -6,55 -2,22 -1,44 1,69 2,24 3,48 11,70 8,22 22,43 48,63 18,14 38,20 60,20 23,-1 48,-8 76,-20 34,-15 60,-23 84,-29 9,-3 18,-5 27,-8 14,-4 29,-6 43,-5 12,0 24,2 36,6 1,-12 3,-24 6,-35 5,-14 12,-27 21,-39 6,-7 11,-14 17,-22 14,-20 31,-42 57,-69 21,-21 37,-42 46,-63 8,-21 10,-42 3,-64 -10,-31 -25,-52 -42,-67 -18,-15 -40,-25 -62,-36 -19,-8 -34,-15 -48,-20 -14,-5 -29,-9 -46,-14 -10,-3 -47,-9 -58,-11l-3 0c-1,-3 22,0 25,-6 0,-1 -4,-7 -5,-8 16,2 38,6 45,8 18,5 33,9 48,15 15,5 30,12 49,21 24,11 46,22 66,38 20,17 36,40 47,75 8,26 6,51 -4,75 -9,23 -26,46 -49,69 -25,26 -41,47 -55,67 -6,8 -12,15 -18,23 -8,10 -13,21 -17,33 -4,13 -7,27 -7,41l0 12 -11 -4c-14,-5 -28,-8 -41,-8 -13,-1 -25,1 -38,4 -8,3 -17,6 -27,8 -23,7 -49,14 -82,29 -30,13 -57,20 -82,21 -27,1 -50,-6 -71,-23 -29,-23 -45,-47 -54,-71 -8,-25 -10,-49 -12,-75 -2,-26 -3,-48 -1,-71 0,-15 2,-29 4,-45 2,-8 10,-13 12,-22l3 6zm-129 13c0,4 6,-12 7,-8 1,8 2,21 2,23 2,19 3,34 4,50 0,16 -1,33 -2,54 -2,26 -4,50 -13,75 -9,24 -24,48 -53,71 -21,17 -45,24 -71,23 -26,-1 -53,-8 -83,-21 -33,-15 -58,-22 -82,-29 -9,-2 -19,-5 -27,-8 -12,-3 -25,-5 -37,-4 -14,0 -28,3 -41,8l-12 4 0 -12c0,-14 -2,-28 -6,-41 -4,-12 -10,-23 -18,-33 -6,-8 -11,-15 -17,-23 -15,-20 -30,-41 -56,-67 -22,-23 -40,-46 -49,-69 -10,-24 -12,-49 -4,-75 11,-35 28,-58 48,-75 19,-16 42,-27 65,-38 19,-9 35,-16 50,-21 15,-6 29,-10 47,-15 11,-3 35,-7 47,-9l-10 14 16 3 -4 0c-11,2 -34,6 -44,9 -18,5 -32,9 -47,14 -14,5 -29,12 -48,20 -22,11 -43,21 -61,36 -18,15 -33,36 -42,67 -7,22 -6,43 3,64 8,21 24,42 45,63 27,27 43,49 57,69 6,8 12,15 17,22 10,12 16,25 21,39 4,11 6,23 7,35 11,-4 23,-6 35,-6 14,-1 29,1 43,5 9,3 18,5 27,8 24,6 50,14 84,29 28,12 53,19 76,20 22,0 42,-6 60,-20 26,-20 40,-41 48,-63 8,-22 10,-46 12,-70 1,-21 2,-37 1,-53 0,-15 -1,-30 -2,-48 -1,-2 -4,-26 -4,-28 0,-2 -1,-5 -1,-7l7 -2 5 20zm-563 -216c-19,0 -39,-4 -57,-11l0 0c-30,-11 -57,-29 -81,-50 -23,-21 -39,-48 -49,-77 -11,-34 -14,-69 -11,-101 3,-27 6,-47 9,-65 4,-24 7,-45 8,-74 1,-18 6,-33 0,-48 -5,-14 -12,-27 -23,-40l-9 -11 14 -3c16,-3 30,-8 44,-16 13,-8 18,-21 29,-36 18,-22 28,-40 41,-62 9,-15 19,-32 34,-56 18,-26 43,-52 73,-70 26,-17 55,-28 87,-29 31,-1 63,3 93,14 15,5 29,12 41,21 -3,-15 -5,-30 -5,-45 1,-31 8,-64 20,-92 12,-30 32,-54 56,-73 28,-22 61,-37 91,-45 27,-6 47,-10 65,-13 24,-5 44,-8 72,-17 18,-6 32,-17 44,-27 12,-10 22,-22 30,-35l8 -13 7 13c8,13 18,25 30,35 12,10 27,21 44,27 28,9 48,12 72,17 18,3 38,7 65,13 31,8 63,23 91,45 24,19 44,43 56,73 12,28 19,61 20,92 0,14 -1,29 -5,42 13,-8 26,-14 41,-19 29,-10 62,-14 93,-13 32,1 62,12 88,28 30,19 55,45 72,71 15,24 25,41 35,56 12,22 22,40 40,62 11,15 16,29 29,37 13,8 28,13 44,16l14 3 -9 11c-11,12 -18,26 -24,40 -5,15 1,29 1,47 1,29 4,50 8,74 3,18 6,38 9,65 4,32 1,67 -10,101 -10,29 -26,56 -50,77 -23,21 -51,39 -80,50l0 0c-19,7 -39,11 -58,11 11,11 21,23 30,37 18,30 32,66 39,97 6,32 3,63 -6,92 -10,34 -28,65 -49,88 -19,21 -33,35 -46,48 -17,18 -32,32 -49,55 -12,15 -19,30 -24,45 -4,14 -5,30 -4,46l1 14 -13 -6c-15,-7 -30,-11 -45,-12 -16,-1 -32,1 -50,6 -28,8 -47,17 -69,27 -17,7 -36,16 -61,25 -29,11 -65,18 -100,15 -30,-2 -61,-10 -88,-28 -26,-17 -50,-39 -68,-65 -9,-12 -16,-25 -21,-39 -6,14 -13,27 -22,39 -18,26 -42,48 -68,65 -27,18 -57,26 -88,28 -35,3 -70,-4 -100,-15 -25,-9 -44,-18 -61,-25 -22,-10 -41,-19 -69,-27 -18,-5 -34,-7 -49,-6 -16,1 -31,5 -45,12l-13 6 1 -14c1,-16 -1,-32 -5,-46 -4,-15 -12,-30 -23,-45 -18,-23 -32,-37 -50,-55 -13,-13 -27,-27 -45,-48 -21,-23 -40,-54 -50,-88 -9,-29 -12,-60 -5,-92 7,-31 20,-67 39,-97 8,-13 18,-26 29,-37zm388 -508l0 0 0 0 -13 -6 -51 -72c-22,-30 -43,-60 -65,-91l-2 -2 0 -1c-16,-18 -37,-31 -61,-39 -27,-10 -57,-14 -86,-13 -29,1 -56,11 -79,26 -28,17 -51,41 -67,66 -15,22 -25,39 -34,55 -13,22 -24,40 -42,64 -13,16 -19,31 -34,40 -12,7 -24,12 -36,15 7,11 13,22 18,35 5,16 1,33 0,54 -1,30 -4,51 -8,76 -3,17 -6,37 -9,64 -3,29 0,62 10,93 9,27 23,51 45,71 22,19 48,36 75,46l0 0c23,9 48,13 71,9 4,-1 7,-2 11,-3 36,-13 71,-23 107,-33 32,-10 64,-20 95,-29 6,-1 9,4 14,3l5 1 2 7c-5,2 -7,4 -11,5 -33,12 -66,20 -98,29l-4 1 -2 1c-34,10 -69,21 -103,31 -19,10 -37,29 -51,51 -17,29 -30,62 -36,92 -7,28 -4,57 4,83 10,32 27,60 47,82 17,20 32,34 44,47 18,18 33,33 51,57 13,16 22,33 27,50 3,12 5,25 5,38 13,-4 25,-7 38,-8 18,-1 36,1 56,7 29,8 48,17 71,27 17,7 35,15 60,25 28,11 60,17 93,14 28,-2 56,-9 80,-25 24,-16 47,-37 63,-60 15,-21 25,-44 27,-67 -1,-39 0,-76 0,-113 0,-28 0,-56 0,-85 0,-10 7,-11 7,-21l4 5c0,10 7,8 7,19 0,28 -1,55 -1,82l0 0 0 0c1,37 1,74 0,113 2,23 12,46 27,67 17,23 39,44 64,60 24,16 52,23 79,25 33,3 66,-3 93,-14 26,-10 44,-18 60,-25 23,-10 43,-19 71,-27 20,-6 39,-8 56,-7 13,1 26,4 38,8 0,-13 2,-26 6,-38 5,-17 13,-34 26,-50 18,-24 33,-39 51,-57 13,-13 27,-27 45,-47 19,-22 37,-50 46,-82 8,-26 11,-55 5,-83 -7,-30 -19,-63 -37,-92 -14,-22 -31,-41 -51,-51 -33,-10 -65,-20 -98,-30l-2 -1 -3 -1c-34,-9 -78,-21 -115,-35l2 -5c13,2 20,-6 22,-5 33,9 69,21 98,30 33,9 66,18 101,31 4,1 8,2 12,3 23,4 47,0 71,-9l0 0c27,-10 53,-27 74,-46 22,-20 36,-44 45,-71 11,-31 13,-64 10,-93 -2,-27 -6,-47 -9,-65 -4,-24 -7,-45 -8,-75 -1,-21 -5,-37 0,-53 5,-13 11,-24 18,-35 -12,-4 -24,-9 -36,-15 -15,-10 -21,-25 -34,-41 -18,-24 -29,-42 -41,-64 -9,-16 -20,-33 -34,-55 -16,-25 -40,-49 -67,-66 -24,-15 -51,-25 -80,-26 -29,-1 -59,2 -87,12 -22,7 -41,19 -56,34 -1,2 -2,4 -3,6l-1 0 -117 164 -14 12 -12 10 3 -9 0 0 0 -1c5,-7 0,-10 5,-17 18,-25 35,-50 53,-74 23,-33 46,-65 68,-97l1 0c0,-2 1,-3 2,-4 9,-19 13,-40 13,-63 -1,-29 -7,-59 -18,-86 -11,-27 -30,-49 -52,-66 -25,-20 -56,-34 -84,-41 -26,-6 -46,-10 -64,-13 -24,-5 -45,-9 -74,-18 -20,-6 -36,-19 -50,-30 -10,-8 -19,-18 -26,-28 -8,10 -17,20 -27,28 -13,11 -30,24 -50,30 -28,9 -49,13 -74,18 -18,3 -37,7 -63,13 -29,7 -59,21 -85,41 -22,17 -40,39 -51,66 -11,27 -18,57 -18,86 -1,25 4,49 15,70l2 2 63 88 3 4c17,24 34,47 51,71 0,0 4,18 5,21l-7 -5zm-47 39c-2,-3 -14,-3 -15,-6 -5,-10 -10,-21 -15,-30 -9,-15 -17,-28 -25,-41 -9,-12 -19,-25 -32,-41 -16,-19 -32,-37 -51,-50 -19,-13 -43,-23 -76,-24 -22,-1 -42,6 -60,19 -18,14 -34,35 -50,61 -19,32 -36,53 -51,73 -6,7 -12,14 -18,22 -9,12 -19,21 -32,29 -10,7 -20,12 -32,16 7,10 12,21 15,32 5,14 7,29 6,43 0,10 -1,19 -1,29 0,24 0,52 -6,88 -5,30 -5,57 0,79 5,21 16,39 34,53 27,20 51,28 74,30 23,2 47,-2 71,-7 20,-4 36,-7 51,-11 15,-5 29,-9 46,-16 10,-3 21,-9 33,-14 9,-4 21,-9 29,-13l4 9 -20 11c-5,2 10,1 3,5 -4,1 -6,2 -9,3 -12,6 -23,11 -34,15 -18,7 -32,12 -48,16 -15,4 -31,8 -52,12 -26,5 -50,9 -76,7 -26,-2 -53,-11 -82,-33 -22,-17 -34,-38 -41,-63 -5,-25 -5,-53 0,-85 6,-36 6,-63 6,-87 0,-10 0,-19 1,-28 1,-13 -1,-26 -5,-38 -4,-13 -11,-25 -19,-37l-7 -10 12 -3c14,-4 27,-10 38,-17 11,-7 20,-15 28,-26 5,-7 11,-14 17,-22 16,-19 32,-40 51,-71 16,-28 34,-50 54,-65 21,-16 44,-24 71,-23 37,2 63,12 85,27 21,14 37,33 54,53 13,16 23,29 33,43 9,13 17,26 26,42 6,9 11,20 15,31 2,3 3,6 4,8l-4 5zm454 -72c2,-2 1,-4 3,-7 2,-2 28,-28 30,-31 11,-14 20,-25 29,-38 9,-12 18,-26 29,-44 12,-21 24,-42 30,-64 6,-23 6,-48 -3,-80 -7,-22 -20,-38 -39,-50 -19,-12 -44,-21 -74,-26 -36,-7 -62,-16 -85,-24 -10,-4 -18,-7 -27,-9 -14,-5 -27,-12 -39,-20 -9,-8 -18,-16 -25,-25 -8,9 -16,17 -26,25 -11,8 -24,15 -39,20 -8,2 -17,5 -26,9 -24,8 -49,17 -86,24 -30,5 -55,14 -74,26 -18,12 -32,28 -38,50 -10,32 -9,57 -3,80 6,22 17,43 30,64 10,18 19,32 28,44 9,13 18,24 30,38 4,6 10,11 16,17 2,2 -2,7 0,9l2 2 -5 10 -2 -2c-8,-8 -17,-16 -24,-25 -12,-14 -22,-26 -31,-39 -9,-13 -18,-27 -29,-45 -13,-23 -25,-44 -32,-69 -7,-25 -7,-54 3,-89 8,-26 24,-45 46,-59 21,-14 48,-23 80,-29 35,-7 61,-16 83,-24 10,-3 19,-6 28,-9 12,-3 23,-9 33,-17 11,-8 20,-19 29,-30l7 -10 7 10c8,11 18,22 29,30 10,8 21,14 33,17 9,3 18,6 27,9 23,8 48,17 83,24 32,6 59,15 81,29 21,14 37,33 45,59 11,35 10,64 3,89 -6,25 -19,46 -32,69 -10,18 -19,32 -29,45 -9,13 -18,25 -30,39 -3,3 -5,6 -7,8 -1,1 -7,7 -13,13 -8,8 1,-13 -1,-12l-25 18z"/>
    <path class="fil1" d="M2944 2377c12,-45 18,-79 14,-122 -36,10 -69,26 -106,52l-5 -17c36,-25 73,-44 116,-54l10 -2 1 9c5,44 2,87 -13,132l-17 2z"/>
    <path class="fil1" d="M3146 3209c46,-2 80,-6 120,-24 -21,-31 -46,-58 -82,-85l15 -10c34,27 63,57 86,95l5 8 -8 4c-40,18 -82,29 -130,28l-6 -16z"/>
    <path class="fil1" d="M2416 3650c16,44 30,75 58,108 24,-28 46,-66 59,-108l15 11c-10,32 -38,83 -68,116l-6 7 -7 -7c-29,-33 -52,-71 -65,-116l14 -11z"/>
    <path class="fil1" d="M1772 3100c-37,27 -64,48 -88,84 34,16 70,25 115,29l-7 16c-44,-4 -85,-14 -124,-34l-9 -4 5 -8c24,-37 54,-68 94,-93l14 10z"/>
    <path class="fil1" d="M2098 2317c-37,-28 -66,-47 -107,-60 -5,37 -3,75 6,119l-17 -1c-9,-44 -12,-87 -4,-131l1 -9 9 3c43,12 81,31 117,63l-5 16z"/>
    <g>
     <path class="fil1" d="M2475 2886c25,0 45,20 45,45 0,25 -20,45 -45,45 -25,0 -45,-20 -45,-45 0,-25 20,-45 45,-45l0 0zm0 13c17,0 31,14 31,32 0,17 -14,32 -31,32 -18,0 -32,-15 -32,-32 0,-18 14,-32 32,-32z"/>
    </g>
    <g>
     <path class="fil1" d="M2475 2830c56,0 101,45 101,101 0,56 -45,101 -101,101 -56,0 -102,-45 -102,-101 0,-56 46,-101 102,-101l0 0zm0 14c48,0 87,39 87,87 0,48 -39,87 -87,87 -48,0 -87,-39 -87,-87 0,-48 39,-87 87,-87z"/>
    </g>
    <g>
     <path class="fil1" d="M2475 2795c74,0 135,61 135,136 0,75 -61,135 -135,135 -75,0 -136,-60 -136,-135 0,-75 61,-136 136,-136l0 0zm0 10c69,0 125,57 125,126 0,69 -56,126 -125,126 -70,0 -126,-57 -126,-126 0,-69 56,-126 126,-126z"/>
    </g>
    <g>
     <path class="fil1" d="M2735 2670c-67,-66 -159,-107 -260,-107 -102,0 -194,41 -261,107 -66,67 -108,159 -108,261 0,102 42,194 108,260 67,67 159,108 261,108 101,0 193,-41 260,-108 67,-66 108,-158 108,-260 0,-102 -41,-194 -108,-261l0 0zm-641 280c0,-4 0,-9 0,-14 -7,1 -14,3 -21,4 -5,1 -11,3 -16,5 6,2 11,3 17,4 6,1 13,2 20,1zm2 24c-1,-4 -1,-9 -1,-13 -5,1 -10,3 -15,5 -3,1 -7,3 -10,5 4,1 8,1 12,2 4,1 9,1 14,1zm3 22c-1,-3 -1,-7 -2,-11 -3,2 -7,4 -11,6 -3,1 -5,3 -8,5 3,1 6,1 10,1 3,0 7,0 11,-1zm5 22c-1,-4 -2,-8 -3,-12 -4,2 -7,4 -10,6 -3,2 -6,3 -8,6 3,1 6,1 10,1 3,0 7,0 11,-1zm5 22c-1,-4 -2,-8 -3,-12 -3,1 -6,3 -9,4 -2,2 -5,4 -7,6 4,1 7,2 10,2 3,1 6,0 9,0zm8 23c-2,-4 -3,-9 -5,-13 -2,1 -5,3 -7,5 -3,2 -6,5 -8,7 4,1 7,2 10,2 3,0 7,0 10,-1zm8 20c-1,-3 -3,-7 -4,-11 -4,2 -7,5 -10,7 -3,2 -5,4 -6,7 3,0 6,-1 10,-1 3,0 7,-1 10,-2zm12 25c-3,-5 -5,-10 -8,-15 -4,2 -8,5 -11,9 -3,3 -6,6 -8,9 5,0 9,0 14,-1 4,0 9,-1 13,-2zm10 18c-2,-3 -4,-6 -5,-9 -5,3 -10,6 -14,10 -4,3 -7,6 -9,9 4,0 8,-1 12,-2 4,-2 9,-4 13,-6 1,-1 2,-1 3,-2zm13 20c-3,-4 -6,-8 -8,-12 -1,0 -2,1 -3,2 -6,4 -11,8 -16,12 -4,5 -8,9 -12,14 6,0 12,-2 18,-5 7,-3 14,-7 21,-11zm14 19c-3,-4 -6,-8 -9,-12 -8,6 -15,12 -22,19 -6,5 -11,11 -15,17 7,-2 14,-5 21,-8 6,-3 12,-6 17,-10 3,-2 5,-4 8,-6zm12 15c-2,-2 -4,-5 -6,-8 -3,2 -6,4 -9,6 -8,7 -16,14 -23,21 -7,8 -14,16 -21,25 2,-1 4,-1 6,-2 5,-1 10,-3 15,-7 12,-12 24,-23 38,-35zm16 18c-3,-4 -6,-7 -10,-11 -14,12 -27,24 -39,36 -11,11 -21,22 -31,34 3,0 6,-1 9,-2 6,-1 12,-4 18,-8 16,-17 34,-33 53,-49zm-37 84c9,-9 18,-17 28,-26 12,-11 24,-22 36,-34 -7,-6 -14,-12 -20,-18 -21,18 -40,35 -57,53 -15,18 -28,36 -36,55 8,-2 15,-6 22,-10 10,-5 18,-12 27,-20zm-69 -395c-13,0 -26,0 -39,2 -11,1 -21,2 -31,5 10,4 21,6 31,8 13,1 25,0 38,-1 0,-5 1,-9 1,-14zm-2 23c-10,1 -21,2 -31,1 -6,1 -11,3 -16,5 -2,0 -4,1 -6,2 9,3 17,5 26,6 9,2 18,2 27,2 0,-5 0,-10 0,-16zm25 -116c-16,-8 -31,-15 -47,-23 -34,-18 -69,-35 -106,-44 -29,-7 -59,-5 -89,-2 -11,1 -22,1 -32,2 8,6 17,13 25,20 23,18 47,37 74,48 36,15 74,21 112,27 17,3 34,5 51,9 3,-13 7,-25 12,-37zm-21 79c-26,-2 -50,-5 -73,-10 -5,0 -11,0 -16,2 -2,0 -3,1 -5,2 26,9 49,10 71,10 8,0 15,0 22,1 0,-2 1,-3 1,-5zm-79 -48c-12,-2 -24,-2 -35,-1 -8,0 -16,1 -24,4 18,12 39,19 61,25 24,5 51,8 78,11 2,-8 4,-16 6,-25 -17,-3 -34,-6 -50,-8 -12,-2 -24,-4 -36,-6l0 0zm114 -64c-24,-14 -48,-27 -72,-36 -21,-9 -43,-14 -64,-14 5,6 11,12 17,17 9,7 18,13 29,18 11,5 22,11 33,17 16,7 31,15 46,22 4,-8 8,-16 11,-24zm12 -21c-14,-8 -27,-16 -42,-23 -13,-6 -27,-12 -41,-16 1,3 3,5 5,8 4,5 9,10 14,14 18,9 37,19 57,30 2,-4 4,-9 7,-13zm12 -19l-2 -1c-19,-11 -38,-22 -57,-30 1,2 3,5 5,8 5,5 10,11 16,17 11,5 21,11 30,17 3,-3 5,-7 8,-11zm14 -20c-8,-6 -16,-11 -23,-16 -6,-3 -12,-6 -17,-8 3,6 7,12 12,17 6,7 12,13 19,19 3,-4 6,-8 9,-12zm14 -18c-5,-4 -11,-8 -16,-11 -5,-2 -10,-5 -15,-7 2,5 5,9 8,13 5,5 10,10 15,15 3,-3 5,-7 8,-10zm14 -15c-4,-4 -8,-7 -13,-10 -3,-2 -6,-4 -9,-5 2,4 4,8 6,12 3,4 6,7 9,10 2,-2 4,-5 7,-7zm15 -15c-3,-2 -7,-5 -10,-7 -3,-2 -6,-3 -9,-5 1,4 3,7 5,10 1,3 4,7 6,10 2,-3 5,-5 8,-8zm14 -13c-2,-2 -5,-5 -8,-7 -3,-2 -5,-3 -8,-5 1,3 2,6 4,9 1,3 3,6 5,9 3,-2 5,-4 7,-6zm17 -13c-3,-3 -5,-5 -8,-7 -2,-1 -3,-3 -5,-4 1,3 1,5 2,7 1,4 2,7 3,10 3,-2 5,-4 8,-6zm16 -12c-5,-6 -10,-12 -16,-15 0,3 0,6 2,9 1,4 4,8 6,11 3,-1 5,-3 8,-5zm15 -9c-5,-5 -9,-10 -14,-13 1,7 4,12 7,17 2,-1 4,-3 7,-4zm16 -10c-4,-5 -8,-11 -13,-15 0,3 1,7 2,10 1,3 3,6 4,9 2,-1 5,-2 7,-4zm19 -9c-3,-4 -6,-8 -9,-12 -3,-3 -6,-6 -9,-9 0,5 1,9 2,13 1,4 3,9 6,13 3,-2 6,-4 10,-5zm20 -9l0 -1c-6,-9 -12,-17 -19,-24 0,4 1,9 2,13 1,5 3,11 6,17 4,-2 7,-4 11,-5zm27 -10c-5,-7 -9,-14 -14,-20 -4,-6 -9,-11 -14,-15 0,7 1,14 3,20 2,7 5,14 8,21 5,-2 11,-4 17,-6zm23 -7c-2,-11 -6,-22 -10,-32 -5,-9 -10,-17 -17,-24 0,11 1,21 3,31 2,10 5,20 10,29 5,-1 10,-3 14,-4zm24 -41c-3,-14 -7,-26 -11,-37 -4,-8 -7,-15 -12,-20 -2,9 -3,18 -4,27 0,12 0,24 1,36 5,11 8,22 11,33 7,-2 15,-3 22,-4 -3,-12 -5,-23 -7,-35zm90 30c2,-17 4,-34 7,-52 6,-38 11,-76 8,-114 -2,-30 -13,-58 -24,-86 -4,-10 -8,-20 -11,-30 -4,10 -8,20 -12,30 -11,28 -22,56 -25,86 -2,38 4,76 10,114 3,17 6,35 8,52 6,0 13,0 19,0 7,0 13,0 20,0zm-48 1c-2,-17 -5,-34 -8,-51 -2,-12 -4,-25 -5,-37 -2,-12 -5,-23 -9,-33 -3,-7 -7,-14 -11,-21 -6,20 -7,42 -6,65 2,25 7,52 13,79 8,-1 17,-2 26,-2zm82 3c6,-28 11,-55 13,-80 1,-23 0,-45 -6,-65 -4,7 -8,14 -11,21 -4,10 -7,21 -9,33l0 0c-1,12 -3,25 -5,37 -2,17 -5,34 -7,51 9,0 17,1 25,3zm49 10c1,-3 2,-5 2,-8 2,-10 4,-20 5,-29 2,-10 2,-20 3,-29 -6,6 -10,15 -14,24 -4,12 -7,25 -10,38 5,1 10,3 14,4zm22 7c2,-9 4,-18 5,-27 1,-8 2,-16 2,-23 -6,7 -10,14 -13,21 -2,5 -4,11 -5,16 -1,3 -1,6 -2,9 4,1 8,2 13,4zm20 7c4,-10 8,-20 9,-32 -3,4 -7,8 -10,12 -3,6 -7,11 -10,16 4,2 8,3 11,4zm20 9c2,-4 3,-9 4,-15 1,-4 2,-9 2,-13 -3,2 -5,5 -8,9 -3,4 -6,9 -9,14 4,2 7,4 11,5zm21 11c3,-7 5,-15 6,-24 -3,2 -6,4 -8,7 -4,3 -7,7 -10,11 4,2 8,4 12,6zm17 10c1,-3 3,-6 3,-10 1,-3 2,-6 2,-10 -3,2 -5,5 -7,7 -2,3 -4,6 -6,9 3,1 5,3 8,4zm18 13c2,-7 4,-14 4,-20 -2,2 -5,4 -7,6 -2,2 -4,4 -6,7 3,2 6,4 9,7zm18 13c2,-5 5,-11 6,-16 -2,1 -3,2 -5,3 -3,2 -6,5 -9,7 3,2 5,4 8,6zm17 15c3,-6 7,-12 9,-18 -3,1 -5,3 -8,4 -3,2 -6,5 -9,7 3,2 5,4 8,7zm14 13c3,-3 5,-7 8,-11 1,-2 3,-5 4,-8 -4,1 -7,2 -9,4 -4,3 -7,5 -10,8 2,2 4,4 6,6 0,1 1,1 1,1zm16 17c3,-4 7,-8 9,-12l0 0c3,-4 5,-8 6,-13 -4,1 -8,3 -12,6 -4,2 -8,5 -12,9 3,3 6,7 9,10zm14 17c9,-9 18,-18 23,-30 -5,2 -10,5 -15,8 -5,4 -11,8 -16,13 3,3 5,6 8,9zm15 21l2 -2c13,-12 26,-24 33,-38 -6,2 -12,5 -19,9 -8,5 -17,11 -26,17 4,5 7,9 10,14zm16 25c10,-9 20,-17 28,-26 8,-8 14,-16 20,-25 -10,4 -19,8 -27,13 -11,6 -21,13 -32,21 4,5 7,11 11,17zm-250 -184c1,-10 4,-20 6,-29l0 0c1,-13 1,-25 1,-38 0,-9 0,-18 -1,-27 -1,2 -2,3 -3,5 -4,6 -7,13 -9,19 -3,22 -7,44 -12,67 6,1 12,2 18,3zm256 196c21,-11 40,-22 60,-30 5,-5 10,-9 13,-14 2,-3 4,-6 5,-9 -7,2 -15,5 -23,9 -10,4 -19,9 -29,15 -9,9 -18,17 -28,25 1,1 2,3 2,4zm31 79c16,-4 32,-6 48,-9 39,-6 77,-12 112,-26 28,-11 51,-30 75,-49 8,-7 17,-13 25,-20 -11,0 -21,-1 -32,-2 -30,-2 -60,-5 -89,2 -37,9 -72,26 -106,44 -15,8 -30,15 -45,22 4,12 9,25 12,38zm-16 -47c15,-6 30,-14 45,-21 10,-6 21,-11 33,-17 10,-5 20,-11 29,-18 6,-5 12,-11 17,-17 -21,0 -43,6 -65,14 -22,9 -46,22 -70,35 4,8 8,16 11,24zm23 80c27,-2 53,-6 76,-11 23,-5 44,-13 61,-25 -8,-2 -15,-3 -23,-4 -11,-1 -23,0 -35,1l0 0c-12,2 -24,4 -36,6 -16,3 -32,5 -48,8 2,9 4,17 5,25zm4 23c3,0 6,0 9,-1l0 0c28,-2 56,-4 81,-13 -2,0 -5,-1 -7,-2l0 0c-8,-2 -17,-4 -27,-5 -18,3 -38,5 -58,7 0,5 1,10 2,14zm1 24l3 0c20,-1 40,-2 66,-8 -8,-3 -17,-4 -27,-5 -13,-2 -28,-2 -43,-1 1,4 1,9 1,14zm1 22c9,0 18,0 28,-1 8,0 15,-1 23,-3 -15,-7 -33,-8 -51,-9 0,3 0,6 0,9 0,1 0,3 0,4zm-1 21c7,1 14,1 21,1 5,-1 11,-1 16,-2 -4,-2 -9,-4 -14,-5 -7,-2 -15,-4 -22,-5 -1,4 -1,8 -1,11zm-2 22c6,1 12,2 18,2 4,0 9,0 14,-1 -4,-3 -8,-5 -13,-7 -5,-2 -11,-4 -18,-5 0,3 -1,7 -1,11zm-3 21c4,1 9,1 14,1 3,0 7,-1 11,-1 -2,-2 -5,-3 -8,-5 -4,-2 -10,-4 -15,-6 -1,4 -2,7 -2,11zm-5 22c5,1 9,1 14,1 4,0 8,0 11,-1 -2,-2 -5,-4 -9,-6 -4,-2 -8,-4 -13,-6 -1,4 -2,8 -3,12zm-6 22c4,1 8,1 11,1 4,-1 7,-1 10,-2 -2,-1 -4,-3 -7,-5 -3,-2 -7,-4 -11,-5 -1,4 -2,7 -3,11zm-8 24c4,0 8,0 12,1 4,0 8,0 12,-1 -2,-2 -5,-5 -8,-7 -4,-2 -8,-4 -11,-6 -2,4 -3,8 -5,13zm-9 20c4,1 8,2 12,2 3,0 6,1 10,0 -2,-2 -4,-4 -7,-6 -3,-2 -6,-4 -10,-6 -2,4 -3,7 -5,10zm-8 17c4,1 8,3 12,3 3,1 7,1 10,1 -2,-2 -4,-4 -7,-5 -3,-3 -7,-4 -11,-6 -1,2 -2,5 -4,7zm-13 24c5,2 10,3 15,4 4,1 9,1 14,1 -2,-3 -5,-6 -8,-9 -4,-4 -8,-7 -13,-10 -3,5 -5,10 -8,14zm-10 16c6,3 13,6 20,8 5,1 10,2 14,3 -3,-3 -6,-5 -10,-7 -6,-4 -12,-8 -19,-11 -2,2 -4,5 -5,7zm-13 18c8,5 16,10 24,13 7,3 14,5 21,6 -4,-5 -9,-10 -15,-14 -7,-6 -15,-11 -23,-15 -2,3 -5,7 -7,10zm-19 23c10,7 21,13 32,18 10,4 20,7 30,10 -6,-7 -13,-14 -20,-21 -9,-8 -18,-16 -29,-23 -4,5 -8,11 -13,16zm-20 20c14,12 28,22 44,30 12,7 25,12 38,16 -4,-5 -8,-11 -12,-17 -7,-8 -14,-16 -21,-23l-1 0c-12,-5 -23,-12 -34,-19 -3,3 -6,6 -9,8 -1,2 -3,4 -5,5zm-56 45c10,15 19,30 27,46 20,34 39,67 65,95 20,22 45,38 71,53 9,5 19,11 28,17 -4,-10 -7,-21 -10,-31 -8,-29 -16,-58 -33,-83 -21,-31 -50,-58 -78,-84 -13,-12 -26,-24 -38,-36 -10,8 -21,16 -32,23zm114 42c6,3 11,6 17,9 4,2 7,4 11,6 -15,-23 -30,-45 -49,-65 -15,-9 -30,-19 -43,-31 -4,4 -8,7 -11,10 12,12 24,24 37,35 13,12 25,24 38,36zm-185 -5c0,1 1,2 1,3 3,13 7,24 11,35 4,9 8,17 13,24 0,-10 -1,-21 -3,-31 -1,-12 -5,-25 -8,-37 -5,2 -9,4 -14,6zm-22 7c0,1 0,2 0,3 2,9 5,18 8,27 3,7 7,14 11,20 0,-6 0,-14 0,-21 -1,-10 -3,-20 -5,-31 0,0 0,-1 -1,-2 -4,1 -8,3 -13,4zm-22 7c1,7 2,14 4,21 2,5 4,11 7,15 1,-6 3,-12 3,-19 0,-6 0,-13 -1,-20l0 -1c-4,1 -9,2 -13,4zm-24 5c0,1 0,1 0,2 0,6 1,10 3,15 1,4 3,8 5,12 1,-5 3,-10 4,-15 1,-6 1,-11 2,-17 -5,1 -9,2 -14,3zm-20 3c0,6 2,11 3,16 1,2 2,5 3,7 1,-3 2,-6 3,-10 1,-4 2,-9 2,-14 0,0 0,0 0,-1 -4,1 -7,1 -11,2zm-20 2c0,6 1,11 3,15 1,2 2,4 3,6 1,-3 2,-6 3,-10 1,-4 1,-8 1,-12 -3,0 -6,1 -10,1zm-24 1c2,7 3,12 5,17 1,3 3,5 4,7 3,-7 4,-16 5,-24 -4,0 -9,0 -14,0zm-23 0c0,4 0,8 1,12 1,3 2,6 4,9 1,-3 3,-6 4,-9 1,-4 2,-8 3,-12 -4,0 -8,0 -12,0zm-22 -2c-1,5 0,10 0,15 1,3 1,6 2,9 2,-3 3,-6 4,-9 2,-5 4,-9 5,-14 -4,0 -7,-1 -11,-1zm-22 -3c0,6 0,11 0,16 1,3 1,6 2,10 2,-4 4,-7 6,-11 2,-4 3,-8 4,-13 -4,-1 -8,-1 -12,-2zm-24 -5c-1,7 -1,13 -1,19 0,6 1,11 2,16 2,-3 5,-7 7,-11 2,-6 4,-13 6,-21 -4,0 -9,-1 -14,-3zm-22 -5c-1,8 -2,16 -3,24 0,7 0,13 1,19 6,-11 10,-24 14,-39 1,0 1,0 1,-1 -4,-1 -9,-2 -13,-3zm-20 -7l0 1c-4,12 -7,23 -9,33 -1,7 -2,14 -3,20 4,-4 7,-9 10,-15 5,-10 9,-21 13,-35 -4,-1 -7,-3 -11,-4zm307 -23c13,26 25,51 40,72 13,20 27,36 45,49 -1,-8 -3,-16 -5,-24 -3,-11 -8,-21 -13,-32l0 0c-6,-10 -12,-21 -18,-32 -9,-15 -18,-30 -27,-45 -7,4 -15,8 -22,12zm21 60c-10,-18 -19,-36 -29,-56 -4,2 -8,4 -12,6 6,16 12,31 20,45 6,13 14,25 23,37 0,-3 1,-6 1,-10 0,-7 -1,-14 -3,-22zm-349 -45c-4,16 -8,30 -14,43 -1,6 -2,12 -2,17 0,2 0,4 0,6 5,-7 9,-15 13,-24 6,-11 10,-23 15,-35l0 -2c-4,-2 -8,-3 -12,-5zm-52 49c-3,5 -6,9 -9,13 -15,24 -33,43 -55,56l-7 4 0 -8c0,-9 2,-18 4,-27 -7,10 -15,19 -23,28 -21,23 -48,39 -74,55 -19,11 -36,22 -54,35 11,-21 16,-37 22,-60 9,-29 18,-59 35,-85 6,-9 13,-18 21,-27 -8,4 -15,7 -24,9l-7 2 2 -8c6,-20 16,-37 30,-54 -1,0 -1,0 -2,0 -7,2 -13,3 -20,4l-10 1 6 -8c7,-10 14,-20 22,-29 -4,1 -9,2 -13,2l-10 1 6 -8c7,-11 16,-22 26,-32 -7,2 -14,4 -21,5l-9 1 5 -8c5,-9 11,-17 18,-24 -7,2 -13,3 -20,3l-8 0 4 -6c4,-8 9,-15 15,-21 -5,1 -9,1 -14,1l-7 0 3 -7c4,-7 9,-14 15,-19 -6,1 -12,1 -19,0l-6 0 3 -6c3,-7 7,-13 12,-19 1,0 1,0 1,-1 -5,1 -10,1 -16,0l-6 -1 3 -6c3,-5 6,-10 11,-14 -5,-1 -11,-2 -16,-5l-5 -2 3 -4c3,-5 7,-9 12,-13 -6,-1 -12,-3 -18,-5l-5 -3 4 -5c2,-3 6,-6 9,-8 -5,-1 -10,-2 -16,-5l-5 -2 4 -5c4,-4 8,-7 12,-10 -5,-1 -11,-2 -16,-3l-8 -3 6 -5c5,-5 11,-9 17,-12l1 -1c-1,0 -2,0 -3,0 -7,-1 -15,-3 -23,-6l-9 -3 8 -5c6,-4 12,-7 19,-10 -1,0 -2,0 -3,0 -9,-2 -19,-4 -28,-8l-9 -4 8 -5c7,-3 14,-6 21,-8 -11,-2 -23,-5 -35,-10l-8 -3 7 -5c4,-2 8,-5 13,-7 -10,-2 -20,-5 -31,-10l-9 -5 10 -4c7,-2 14,-4 21,-6 -13,-2 -26,-5 -41,-12l-7 -3 6 -5c4,-2 8,-4 13,-6 -20,-6 -39,-15 -55,-28l-7 -5 8 -2c9,-4 18,-6 27,-7 -12,-3 -24,-7 -35,-11 -29,-12 -53,-31 -77,-50 -16,-14 -32,-25 -50,-37 22,1 41,0 62,-1 31,-3 62,-5 92,2 11,3 22,6 33,10 -6,-6 -12,-12 -17,-19l-5 -6 9 -1c24,-2 48,4 73,13l-1 -1c-5,-6 -8,-11 -11,-18l-4 -8 9 2c15,3 29,8 42,14l0 -1c-5,-6 -9,-13 -12,-20l-3 -9 9 3c15,5 30,12 44,20 -7,-8 -12,-17 -16,-26l-4 -9 9 2c9,3 18,7 27,12 -4,-5 -6,-10 -9,-16l-3 -8 9 2c9,2 17,5 25,9 -3,-5 -5,-10 -7,-16l-2 -8 8 2c6,2 11,4 17,7 -2,-4 -3,-8 -5,-13l-1 -7 7 2c6,1 11,3 16,6 -2,-4 -4,-9 -5,-14l-2 -8 8 2c7,2 13,5 19,9 -2,-6 -3,-12 -3,-19l-1 -10 8 6c3,2 5,4 8,6 -2,-5 -2,-10 -1,-16l2 -4 4 1c4,1 8,3 11,6 0,-3 0,-6 0,-10l0 -6 5 2c5,1 9,4 13,7 -1,-5 -2,-10 -2,-16l0 -7 7 3c3,2 6,4 9,6 -1,-5 -1,-11 -1,-17l1 -6 6 3c5,3 10,6 13,10 -1,-7 -2,-14 -2,-21l0 -9 7 5c6,4 10,8 14,13 -2,-9 -3,-18 -2,-28l0 -7 6 4c8,4 15,10 21,17l0 0c-3,-14 -4,-28 -3,-43l1 -8 6 5c7,5 13,11 17,17 0,-6 0,-13 0,-20 1,-12 3,-25 7,-37l2 -7 5 5c6,6 11,14 16,22 -2,-26 0,-52 9,-75l3 -8 5 7c5,7 9,14 13,21 -1,-11 -1,-23 0,-34 3,-31 14,-60 26,-88 7,-18 13,-36 20,-54 7,18 12,36 19,54 11,28 23,57 25,88 1,12 1,24 1,36 4,-8 8,-16 14,-23l5 -7 3 8c8,21 10,43 9,66 4,-5 7,-10 11,-13l6 -6 1 8c2,13 3,26 3,39 0,5 0,9 0,14 5,-9 10,-16 18,-22l7 -7 0 10c0,12 -1,23 -2,35 4,-5 8,-10 13,-15l7 -7 0 10c1,12 1,24 -1,36 0,2 -1,4 -1,7 5,-7 11,-14 18,-21l7 -7 1 10c0,7 -1,14 -2,21 4,-4 7,-7 12,-10l7 -6 0 10c-1,8 -1,17 -3,25 5,-5 11,-10 16,-13l7 -3 0 7c0,6 0,13 -1,18 3,-2 6,-5 11,-7l6 -3 0 7c1,6 0,11 -1,17 4,-3 8,-6 11,-8l6 -3 1 7c1,7 0,15 -2,22 1,0 2,-1 2,-1 5,-4 10,-7 16,-9l7 -2 -1 7c-1,6 -3,12 -5,19 0,-1 1,-1 1,-1 6,-4 12,-7 18,-9l7 -3 -1 7c0,5 -2,10 -4,14 5,-3 10,-5 15,-6l7 -1 -1 7c-1,4 -3,8 -4,12 5,-2 11,-5 18,-6l6 -1 -1 7c-1,5 -3,10 -5,15 7,-4 14,-8 21,-11l8 -3 -2 9c-1,7 -4,13 -7,19 10,-6 20,-10 30,-13l7 -1 -2 7c-2,8 -7,16 -12,23 12,-6 24,-11 37,-15l10 -3 -5 9c-3,7 -7,14 -12,20 3,-1 6,-3 9,-4 10,-5 21,-8 33,-11l7 -1 -2 7c-2,7 -5,13 -9,19 22,-8 45,-12 67,-11l8 1 -5 7c-5,6 -10,13 -16,18 11,-4 22,-7 33,-10 30,-7 61,-4 92,-2 19,2 37,2 56,3 -14,12 -30,23 -45,35 -24,19 -48,38 -76,50 -12,5 -23,8 -35,12 9,1 18,3 27,6l7 3 -6 5c-19,15 -42,24 -68,31 2,0 5,1 7,2l0 0c8,2 15,4 21,6l10 5 -10 4c-16,6 -32,10 -49,12 10,2 20,5 28,10l9 6 -10 2c-14,5 -27,7 -38,9 8,2 15,6 22,11l8 5 -10 3c-11,2 -22,4 -33,5 7,3 14,6 20,11l8 5 -9 3c-9,2 -18,3 -26,4 7,3 13,7 18,13l4 6 -7 1c-6,2 -12,3 -18,3 4,3 8,6 10,10l1 5 -4 1c-5,2 -10,3 -15,4 5,3 10,7 13,12l3 5 -5 2c-6,2 -13,3 -19,3 4,4 8,7 11,11l3 5 -6 2c-5,2 -11,3 -17,4l0 0c6,4 12,9 15,15l4 5 -7 2c-6,1 -14,2 -21,2 6,4 10,9 12,14l3 6 -6 1c-4,0 -8,1 -13,0 4,3 7,6 10,10l4 5 -6 2c-7,2 -13,2 -20,1l1 1c6,5 11,11 14,18l4 6 -7 0c-6,1 -11,1 -16,1 7,4 13,10 18,16l5 7 -9 0c-6,0 -13,-1 -19,-2 7,6 13,13 19,21l4 8 -8 -1c-8,0 -16,-1 -23,-3 10,9 18,19 25,30l6 8 -10 -2c-8,-1 -16,-3 -24,-5 3,3 6,6 9,10 9,12 17,25 26,37 -16,-3 -30,-7 -45,-14 18,22 37,48 50,73 -12,-3 -20,-7 -32,-13 9,10 17,20 24,30 17,26 25,56 34,85 6,22 12,40 21,60 -17,-14 -33,-24 -52,-35 -27,-16 -53,-32 -74,-55 -8,-9 -16,-18 -23,-28 2,9 3,18 3,27l0 8 -7 -4c-21,-13 -39,-32 -54,-55 0,1 0,3 0,4 0,8 -1,15 -3,22l-3 9 -5 -7c-12,-15 -22,-30 -30,-47 -1,0 -1,-1 -2,-2 2,16 3,32 0,48 -12,-11 -19,-24 -26,-39 0,9 -1,17 -2,24l-2 10 -6 -8c-7,-10 -13,-20 -18,-31 -1,7 -3,14 -6,21l-3 8 -5 -7c-5,-7 -9,-16 -12,-25 -2,7 -4,14 -7,21l-3 7 -5 -6c-4,-5 -7,-10 -9,-16 -2,5 -4,10 -6,14l-4 7 -4 -7c-2,-4 -4,-8 -6,-13 -2,4 -3,8 -5,12l-4 6 -4 -6c-3,-3 -5,-7 -7,-11 -2,5 -4,10 -7,15l-4 5 -4 -5c-2,-4 -5,-9 -8,-16 -1,-2 -2,-4 -2,-6 -1,0 -1,1 -1,1 -2,6 -5,12 -9,17l-4 3 -3 -4c-4,-4 -6,-9 -8,-15l0 0c-3,7 -7,13 -10,19l-5 7 -3 -8c-2,-5 -4,-10 -5,-16 -3,6 -6,11 -11,15l-5 6 -2 -7c-2,-5 -3,-10 -4,-15l0 1c-4,8 -9,15 -15,19l-5 4 -2 -6c-1,-6 -3,-11 -3,-17 -4,9 -9,17 -15,25l-6 6 -2 -9c-1,-7 -2,-15 -2,-23 -1,1 -1,2 -2,3 -5,12 -12,21 -20,27l-7 5 0 -9c0,-5 0,-11 1,-17 -7,13 -13,22 -23,33 -1,-9 -3,-17 -3,-26 -6,10 -13,19 -22,27l-8 7 0 -10c0,-12 1,-25 3,-38zm31 -59c-4,9 -8,17 -12,25 -5,11 -8,22 -10,33 -2,9 -2,19 -3,28 9,-10 16,-20 21,-32 7,-14 13,-33 16,-48 -4,-2 -8,-4 -12,-6zm-74 60c-6,11 -10,21 -14,32 -2,8 -3,16 -4,24 17,-13 32,-29 45,-49 14,-21 26,-45 39,-71 -7,-4 -15,-8 -22,-12 -9,14 -17,29 -26,44 -6,11 -12,22 -18,32l0 0zm5 -104c-12,12 -25,24 -37,35 -29,26 -57,53 -79,84 -16,25 -24,54 -33,83 -3,10 -6,21 -9,31 9,-6 18,-12 27,-17 26,-15 52,-31 72,-53 26,-28 45,-61 64,-95 9,-15 17,-30 27,-45 -11,-7 -22,-15 -32,-23z"/>
    </g>
    <path class="fil1" d="M2333 2712l1 -4 3 -5 3 -5 4 -4 5 -4 5 -4 6 -4 7 -3 7 -3 7 -3 7 -2 8 -2 7 -1 8 -1 7 -1 8 0 7 0 6 1 6 1 6 2 5 2 5 2 4 3 2 3 3 4 1 4 0 6 0 59 -3 -1 -3 0 -8 1 -8 1 -8 1c-4,1 -8,2 -12,3 -4,1 -8,2 -12,3 -4,2 -8,3 -12,5l-7 3c-3,1 -7,3 -10,4 -5,3 -11,6 -15,11l-33 -43 -4 -6 -2 -6 -2 -6 0 -5 1 -6zm-103 121l-1 -6 0 -5 1 -6 1 -6 2 -7 3 -6 3 -7 4 -6 4 -6 5 -6 5 -6 5 -6 6 -5 5 -5 6 -5 6 -4 6 -3 5 -3 6 -2 5 -1 6 -1 4 0 5 1 4 2 3 3 4 4 34 47 -2 2 -3 2 -3 3 -6 5 -5 6 -5 6c-3,3 -6,7 -8,10 -3,3 -5,7 -7,10 -2,4 -5,7 -7,10 -1,4 -3,7 -5,10 -2,3 -3,6 -5,9l-2 5c-1,2 -2,5 -2,7l-53 -17 -7 -2 -5 -4 -5 -4 -3 -4 -2 -4 -2 -5zm-7 165l-4 -3 -4 -4 -3 -4 -3 -5 -3 -6 -2 -6 -1 -7 -1 -7 -1 -8 0 -7 0 -8 0 -8 1 -7 2 -8 1 -7 2 -7 3 -7 3 -6 3 -6 3 -5 3 -4 4 -3 4 -3 4 -2 5 -1 4 0 5 2 56 18 -1 3 -1 3 -1 4 -2 7 -1 8 -1 8c-1,5 -1,9 -1,13l0 9 0 8c0,4 0,8 1,12l0 7 2 7 1 6 1 3 1 2 1 2 0 1 -51 18 -7 2 -6 1 -6 -1 -5 -1 -5 -3zm88 135l-5 0 -6 0 -5 -2 -6 -3 -5 -3 -5 -4 -6 -4 -5 -6 -5 -5 -4 -6 -5 -6 -4 -7 -4 -7 -3 -7 -3 -7 -2 -6 -2 -7 -2 -7 0 -6 -1 -6 1 -6 1 -5 1 -4 3 -4 3 -3 3 -3 5 -2 56 -18 1 3 1 3 3 7 3 8 4 7 4 7c2,4 5,7 7,11 2,3 5,7 7,10l5 6c3,3 5,6 8,9l5 4 5 4 2 2 2 1 2 2 1 0 -30 45 -5 5 -5 5 -5 3 -5 1 -5 1zm150 58l-4 3 -5 3 -5 1 -6 2 -7 0 -6 0 -7 -1 -7 -1 -8 -1 -7 -2 -7 -3 -7 -3 -7 -3 -7 -4 -6 -4 -6 -4 -6 -4 -5 -5 -4 -4 -4 -5 -3 -5 -2 -4 -1 -5 -1 -4 1 -5 1 -4 3 -4 34 -48 3 2 3 2 3 2 6 4 8 4 7 3 8 4c4,1 8,3 12,4 4,1 8,2 12,4l7 1c4,1 7,2 11,2 6,1 13,2 19,1l1 54 -1 7 -1 6 -2 6 -3 4 -4 4zm156 -42l-2 5 -3 5 -3 5 -4 4 -5 4 -5 4 -6 4 -6 3 -7 3 -7 3 -8 2 -7 2 -8 1 -7 1 -8 1 -7 0 -7 0 -7 -1 -6 -1 -6 -2 -5 -2 -4 -2 -4 -3 -3 -4 -2 -3 -2 -5 0 -5 0 -59 3 0 4 0 7 0 8 -1 8 -1c4,-1 8,-2 12,-3 4,-1 9,-2 13,-4 3,-1 7,-2 11,-4 4,-1 7,-3 11,-4l6 -3c6,-3 11,-6 16,-11l32 43 4 6 3 6 1 6 0 5 0 5zm101 -125l1 5 1 6 0 5 0 6 -2 6 -2 7 -3 6 -3 6 -4 7 -4 6 -5 6 -5 6 -5 6 -5 5 -6 5 -6 5 -6 3 -5 4 -6 3 -6 2 -5 1 -5 1 -5 -1 -4 -1 -4 -1 -4 -3 -3 -4 -35 -48 3 -1 3 -2 5 -5 6 -6 6 -6c3,-3 6,-6 8,-9 3,-3 5,-7 8,-10 2,-3 5,-7 7,-10 2,-4 4,-7 6,-10l3 -6c3,-6 6,-12 6,-18l52 15 7 3 6 4 4 3 3 5 3 4zm8 -161l4 4 4 3 4 5 3 5 2 6 2 6 2 7 1 7 0 8 1 7 0 8 -1 8 -1 7 -1 8 -2 7 -2 7 -2 7 -3 6 -3 5 -4 5 -3 5 -4 3 -4 3 -4 1 -4 1 -5 0 -5 -1 -56 -18 1 -3 1 -3 1 -4 2 -7 1 -8 1 -9c1,-4 1,-8 1,-12 1,-5 1,-9 1,-13 -1,-4 -1,-8 -1,-12l-1 -8 -1 -7c-1,-6 -2,-12 -5,-18l51 -18 7 -1 6 -1 6 1 6 1 4 2zm-87 -135l5 0 5 1 5 2 6 3 5 3 6 4 5 4 5 5 5 6 5 6 4 6 4 7 4 7 3 6 3 7 3 7 1 7 2 7 1 6 0 6 0 5 -1 5 -2 5 -2 4 -3 3 -4 3 -5 2 -56 18 -1 -3 -1 -4 -2 -7 -4 -7 -4 -7 -4 -7c-2,-4 -4,-8 -7,-11 -2,-3 -5,-7 -7,-10 -3,-3 -5,-6 -8,-9l-5 -6 -5 -5c-3,-3 -7,-6 -12,-8l31 -45 4 -6 5 -4 5 -3 5 -2 6 -1zm-151 -57l4 -3 5 -3 6 -2 6 -1 6 0 7 0 6 0 8 1 7 2 7 2 7 3 8 3 7 3 6 4 7 3 6 5 5 4 5 4 5 5 3 5 3 4 2 5 2 5 0 4 0 4 -2 5 -2 4 -35 48 -3 -2 -2 -2 -4 -2 -6 -4 -7 -4 -8 -4c-4,-1 -8,-3 -12,-4 -4,-2 -8,-3 -12,-4 -4,-2 -7,-3 -11,-4l-8 -1c-3,-1 -7,-2 -10,-2l-6 -1 -3 0 -3 1 -2 0 -1 0 -2 -54 1 -7 1 -7 3 -5 3 -4 3 -4zm-13 97c90,0 163,73 163,163 0,90 -73,163 -163,163 -90,0 -164,-73 -164,-163 0,-90 74,-163 164,-163zm0 -127c159,0 289,130 289,290 0,159 -130,289 -289,289 -160,0 -290,-130 -290,-289 0,-160 130,-290 290,-290z"/>
    <path class="fil1" d="M2270 2793l16 -25 3 -6 5 4c4,3 7,6 11,8 6,5 12,10 19,15l0 0 0 1 0 0c3,3 4,10 3,17 0,6 -3,13 -6,17l0 0c-1,0 -1,0 -1,0 -4,5 -10,9 -16,12 -7,4 -14,5 -22,2l4 -11c4,1 9,0 13,-2 5,-2 9,-6 13,-9l0 0 0 0c2,-3 3,-7 3,-11 1,-3 1,-6 0,-7 -6,-5 -11,-10 -17,-14 -2,-2 -4,-3 -6,-4l-12 20 -10 -7z"/>
    <g>
     <path class="fil1" d="M2271 2968c-12,1 -24,3 -36,1l-4 0 -1 -3c-3,-8 -5,-15 -6,-23 -1,-8 0,-16 1,-25 2,-7 5,-14 9,-18 5,-5 11,-8 17,-8 7,0 13,4 18,8 6,6 10,12 10,18 1,10 1,19 1,29 1,5 1,10 1,15l0 5 -5 1c-9,1 -4,0 -5,0l0 0zm-31 -10c9,0 19,-1 29,-2 0,-2 -1,-5 -1,-8 0,-10 0,-19 -1,-29 0,-3 -3,-7 -6,-10 -3,-3 -6,-5 -10,-5 -3,0 -5,2 -8,4 -3,3 -5,7 -6,12 -1,8 -2,15 -1,22 1,5 2,10 4,16z"/>
    </g>
    <g>
     <path class="fil1" d="M2375 2717c-2,3 -3,7 -3,10 8,-5 17,-8 26,-12 9,-3 18,-6 28,-8 -2,-3 -5,-5 -8,-6 -5,-1 -12,-1 -20,1 -2,1 -4,1 -6,2 -7,3 -14,7 -17,13l0 0zm-1 42c-1,-2 -2,-4 -3,-5 -4,-5 -7,-10 -9,-15 -4,-11 -2,-20 2,-28 6,-8 14,-15 24,-18 3,-1 5,-2 7,-2 10,-3 19,-3 27,-1 8,2 14,8 18,17 0,1 0,2 1,3 1,6 1,12 2,18 0,2 0,5 1,7l-12 1c-1,-2 -1,-5 -1,-7 0,-4 -1,-7 -1,-10 -10,2 -19,4 -28,8 -9,3 -18,7 -27,12 2,3 4,5 5,7 2,2 3,4 4,6l-10 7z"/>
    </g>
    <path class="fil1" d="M2585 2711c1,8 1,16 -1,23 -1,8 -5,15 -9,21l-10 -6c3,-5 5,-9 6,-13 -8,-5 -16,-9 -25,-11 -8,-2 -17,-4 -25,-4 -1,4 -2,8 -1,13l-12 1c-1,-8 0,-16 3,-23 2,-8 7,-15 13,-21l9 7c-3,4 -6,7 -8,11 8,1 17,2 24,4 9,3 17,6 25,10 0,-3 0,-7 -1,-10l12 -2z"/>
    <path class="fil1" d="M2611 2789c1,-7 5,-14 11,-19 5,-6 11,-10 19,-11 6,-1 12,2 17,5 6,5 10,11 11,17 1,3 0,6 -1,9 3,0 5,1 8,2 0,0 0,0 1,0 5,3 9,8 10,14 2,5 2,11 -1,16 0,1 0,1 -1,1 -3,7 -9,12 -16,15 -7,3 -15,5 -22,4l1 -12c5,0 11,-1 16,-3 5,-2 9,-5 11,-9 0,-1 0,-1 0,-1 1,-2 2,-5 1,-8 -1,-2 -3,-5 -5,-6 0,0 0,0 -1,0 -1,-1 -2,-1 -4,-1 -3,-1 -5,-1 -7,0l-11 1 5 -10c0,-1 1,-3 2,-4 1,-2 3,-5 2,-6 0,-3 -3,-6 -6,-9 -3,-2 -6,-3 -8,-3 -5,1 -9,3 -13,7 -4,4 -6,9 -7,14l-12 -3z"/>
    <g>
     <path class="fil1" d="M2702 2906c-1,-1 -3,-2 -5,-2 1,9 1,18 1,27 0,9 -1,18 -2,28 3,0 5,-1 7,-2 5,-3 7,-6 9,-10 3,-5 4,-11 4,-17 0,-5 -1,-9 -4,-14 -2,-4 -6,-8 -10,-10l0 0zm-31 -12l1 0c11,-3 25,-5 36,1 6,4 11,9 15,15 3,6 5,13 5,20 0,8 -2,16 -5,22 -3,6 -7,11 -13,15 -10,6 -24,3 -35,0 -1,0 -2,0 -4,0l2 -12c1,0 2,0 4,1 2,0 4,1 7,1 1,-9 2,-18 2,-26 0,-9 0,-18 -1,-27 -4,0 -7,1 -11,1l-1 1 -2 -12z"/>
    </g>
    <g>
     <path class="fil1" d="M2660 3043c-4,-2 -9,-5 -14,-8 -1,2 -2,4 -4,6 -3,6 -8,12 -11,18 -5,11 -8,21 2,27 16,8 32,-19 41,-36 -5,-2 -9,-5 -14,-7l0 0zm-13 -21c7,4 13,7 19,10 6,4 12,7 19,11l6 3 -3 5 -3 5c-11,19 -31,54 -57,40 -19,-10 -16,-26 -8,-42 4,-7 8,-14 12,-20 3,-4 5,-7 7,-10l3 -5 5 3z"/>
    </g>
    <g>
     <path class="fil1" d="M2522 3150c0,1 1,2 2,4 4,7 14,10 32,4 6,-2 11,-4 14,-7 4,-3 6,-7 6,-11 1,-2 1,-5 0,-8 -9,5 -19,9 -28,12 -9,3 -18,5 -26,6l0 0zm-4 -26c0,4 0,9 1,14 8,-1 17,-3 25,-6 9,-3 19,-6 28,-12 -2,-3 -4,-7 -7,-9l9 -8c5,5 10,13 13,21 2,6 2,12 1,18 -1,7 -4,13 -10,18 -4,4 -10,7 -18,10 -25,8 -39,2 -46,-10 -7,-10 -8,-25 -8,-37l12 1z"/>
    </g>
    <path class="fil1" d="M2383 3148c0,1 1,1 2,2 6,6 13,10 20,11 6,0 13,-2 19,-8 1,0 1,-1 2,-1 1,-1 1,-2 2,-2 1,-3 2,-6 1,-9 -1,-4 -3,-8 -7,-12 -2,-2 -5,-4 -8,-6 -8,-6 -15,-7 -21,-6 -5,1 -9,4 -14,9 4,3 8,5 12,7 5,2 11,4 18,5l-2 12c-8,-1 -15,-3 -21,-7 -7,-3 -13,-6 -19,-11l-6 -4 4 -5c8,-9 16,-16 25,-18 9,-2 19,0 31,8 3,2 6,4 9,7 6,6 9,12 11,18 1,7 0,13 -3,18 -1,1 -2,3 -3,4 -1,1 -2,2 -3,2 -9,8 -18,11 -28,11 -10,-1 -19,-6 -27,-14 -1,-1 -2,-2 -3,-3l9 -8z"/>
    <g>
     <path class="fil1" d="M2278 3044c-2,3 -4,6 -5,8l0 0c-2,5 -1,11 1,17 1,2 2,4 4,6 4,7 9,11 13,14 4,3 8,4 11,4 3,-1 6,-2 9,-3 -7,-7 -13,-14 -19,-22 -5,-8 -10,-15 -14,-24l0 0zm23 -15c-5,2 -9,5 -13,7 4,9 8,17 14,25 5,7 12,14 19,21 2,-3 5,-7 8,-11l10 7c-6,9 -12,16 -19,20 -5,4 -11,6 -17,7 -6,0 -12,-2 -18,-5 -6,-4 -12,-10 -17,-18 -2,-3 -4,-6 -5,-9 -4,-8 -4,-17 -1,-25l0 0c3,-8 9,-15 18,-21 4,-3 10,-6 16,-9l5 11z"/>
    </g>
   </g>
  </g>
 </g>
</svg>
